<svg xmlns="http://www.w3.org/2000/svg" fill="currentColor" viewBox="0 0 18.92 16.41"><defs><style>.cls-1{fill-rule:evenodd;}</style></defs><g id="Слой_2" data-name="Слой 2"><g id="Слой_1-2" data-name="Слой 1"><path d="M16.38.12a.17.17,0,0,1,.33,0L16.9.7A2.09,2.09,0,0,0,18.22,2l.58.19a.17.17,0,0,1,0,.33l-.58.19A2.05,2.05,0,0,0,16.9,4l-.19.59a.18.18,0,0,1-.33,0L16.19,4a2,2,0,0,0-1.31-1.31l-.59-.19a.17.17,0,0,1,0-.33L14.88,2A2.07,2.07,0,0,0,16.19.7Z"/><path d="M15,8.21a.1.1,0,0,1,.2,0l.12.36a1.27,1.27,0,0,0,.8.81l.36.12a.1.1,0,0,1,0,.2l-.36.11a1.27,1.27,0,0,0-.8.81l-.12.36a.1.1,0,0,1-.2,0l-.12-.36a1.3,1.3,0,0,0-.81-.81L13.7,9.7a.1.1,0,0,1,0-.2l.36-.12a1.3,1.3,0,0,0,.81-.81Z"/><path d="M11.65,14.35a0,0,0,0,1,.07,0l0,.14a.51.51,0,0,0,.32.32l.14,0s0,.06,0,.08l-.14,0a.51.51,0,0,0-.32.32l0,.14a0,0,0,0,1-.07,0l-.05-.14a.51.51,0,0,0-.32-.32l-.14,0s0-.07,0-.08l.14,0a.51.51,0,0,0,.32-.32Z"/><path class="cls-1" d="M3,9.6a.68.68,0,0,1-.67-.68A.67.67,0,0,1,3,8.25H5.67a.67.67,0,0,1,.68.67.68.68,0,0,1-.68.68ZM1.71,6.32A.67.67,0,0,1,1,5.65.68.68,0,0,1,1.71,5h4a.68.68,0,0,1,.67.68.67.67,0,0,1-.67.67h-4Zm-1-3.27a.68.68,0,0,1,0-1.35h5a.67.67,0,0,1,.67.67.68.68,0,0,1-.67.68Z"/><path class="cls-1" d="M9.33,1.57V1.12A.27.27,0,0,0,9.06.86h-1a.27.27,0,0,0-.27.26v10.5a2.42,2.42,0,0,0-1-.21,2.5,2.5,0,1,0,2.5,2.5V3.33c2.38.16,3.14,1.43,2.86,4.87C14.45,4.76,13.82,2.16,9.33,1.57ZM6.83,14.91a1,1,0,1,1,1-1A1,1,0,0,1,6.83,14.91Z"/></g></g></svg>