<?xml version="1.0" encoding="utf-8"?>
<!-- Generator: Adobe Illustrator 24.1.2, SVG Export Plug-In . SVG Version: 6.00 Build 0)  -->
<svg version="1.1" id="Слой_1" fill="currentColor" xmlns="http://www.w3.org/2000/svg" xmlns:xlink="http://www.w3.org/1999/xlink" x="0px" y="0px"
	 viewBox="0 0 250 250" style="enable-background:new 0 0 250 250;" xml:space="preserve">
<path d="M125,176c-28.12,0-51-22.88-51-51c0-28.12,22.88-51,51-51c28.12,0,51,22.88,51,51C176,153.12,153.12,176,125,176z M125,77
	c-26.47,0-48,21.53-48,48c0,26.47,21.53,48,48,48c26.47,0,48-21.53,48-48C173,98.53,151.47,77,125,77z"/>
<path d="M125.56,0.94C56.88,0.94,1,56.82,1,125.5s55.88,124.56,124.56,124.56c68.69,0,124.56-55.88,124.56-124.56
	S194.25,0.94,125.56,0.94z M125.56,247.06C58.53,247.06,4,192.53,4,125.5S58.53,3.94,125.56,3.94S247.12,58.47,247.12,125.5
	S192.59,247.06,125.56,247.06z"/>
<path d="M125.62,14c-61.48,0-111.5,50.02-111.5,111.5S64.14,237,125.62,237c61.49,0,111.5-50.02,111.5-111.5S187.11,14,125.62,14z
	 M114.75,24.38c50.32,0,91.25,40.93,91.25,91.24c0,50.32-40.93,91.26-91.25,91.26S23.5,165.94,23.5,115.62
	C23.5,65.31,64.43,24.38,114.75,24.38z M125.62,234c-59.82,0-108.5-48.67-108.5-108.5c0-19.12,4.97-37.09,13.69-52.7
	c-6.59,12.85-10.31,27.41-10.31,42.82c0,51.97,42.28,94.26,94.25,94.26S209,167.59,209,115.62c0-51.96-42.28-94.24-94.25-94.24
	c-18.68,0-36.11,5.46-50.76,14.87C81.5,24.12,102.75,17,125.62,17c59.83,0,108.5,48.67,108.5,108.5
	C234.12,185.33,185.45,234,125.62,234z"/>
<path d="M115,34c-44.66,0-81,36.34-81,81c0,44.66,36.34,81,81,81s81-36.34,81-81C196,70.34,159.66,34,115,34z M125,186
	c-33.64,0-61-27.36-61-61s27.36-61,61-61s61,27.36,61,61S158.64,186,125,186z M189,125c0-35.29-28.71-64-64-64s-64,28.71-64,64
	c0,35.29,28.71,64,64,64c14,0,26.97-4.52,37.51-12.19C149.34,186.96,132.86,193,115,193c-43.01,0-78-34.99-78-78s34.99-78,78-78
	s78,34.99,78,78c0,17.86-6.04,34.34-16.19,47.51C184.48,151.97,189,139,189,125z"/>
</svg>
