<?xml version="1.0" encoding="utf-8"?>
<!-- Generator: Adobe Illustrator 24.3.0, SVG Export Plug-In . SVG Version: 6.00 Build 0)  -->
<svg version="1.1" id="Слой_1" xmlns="http://www.w3.org/2000/svg" xmlns:xlink="http://www.w3.org/1999/xlink" x="0px" y="0px"
	 viewBox="0 0 991 953" style="enable-background:new 0 0 991 953;" xml:space="preserve">
<g>
	<path fill="#fff" d="M473,928.4c-5.1-0.2-9.5-0.5-9.8-0.6c-0.2-0.1-6.5-13.6-13.8-30c-7.3-16.3-13.4-29.8-13.5-29.8c-0.1,0-9.4,11.5-20.4,25.5
		c-16.7,21.1-20.4,25.5-21.4,25.5c-0.6,0-6.2-1.1-12.5-2.5c-6.2-1.3-11.4-2.5-11.5-2.5c-0.6,0,0.4-6.8,8.9-57.5
		c8.9-52.7,9.1-54.2,10.2-54.4c0.6-0.1,5.2,0.9,10.4,2.2l9.2,2.4v2.5c0,1.4-2.7,18.4-6,37.8c-3.3,19.5-6,35.5-6,35.7
		s3.6-4.2,8.1-9.8c4.5-5.6,12.8-16.1,18.5-23.3c7.5-9.5,10.7-13,11.5-13c2.2,0,10.8,1.2,11.2,1.5c0.3,0.2,6.1,12.6,13,27.5
		c12.4,26.8,12.5,27,12.8,24.9c0.2-1.2,2-17.9,3.9-37.2c2-19.2,3.6-35.5,3.8-36.1c0.2-1.2,0.3-1.2,11-1.2h10.8v1.8
		c0,1-1.7,18.2-3.8,38.1c-2,20-4.6,44.5-5.6,54.5l-1.9,18.2l-4,0C484,928.9,478.1,928.7,473,928.4z"/>
	<path fill="#fff" d="M523,925c0-1.4,4-13,13-37.3l13-35.4l-3.5-18.5c-2-10.2-3.5-19.2-3.5-20v-1.6l9.4-1.8c5.2-1,10-1.8,10.8-1.8h1.5l3.8,19.8
		c2.2,11,4.2,20.2,4.5,20.7s12,13.2,25.8,28.2c22.6,24.5,25.2,27.6,25.4,29.2l0.2,1.8l-10.4,2.9c-5.7,1.5-11.2,2.8-12,2.8
		c-1.5,0-3-1.5-19.5-20l-17.8-20l-3,8.8c-1.7,4.9-5.6,16.3-8.8,25.4c-3.1,9.1-5.7,16.5-5.7,16.6c-0.2,0.2-18.7,2.2-20.9,2.2H523
		L523,925L523,925z"/>
	<path fill="#fff" d="M309,892.5c-5.1-2.2-12-5.2-15.5-6.8c-6.1-2.8-29.3-14.7-37.4-19.2c-4-2.2-4.1-2.3-4.1-4.1c0-1.3,1.1-4.2,3.8-9.4l3.8-7.5
		h1.8c1.4,0,4.5,1.5,12.6,6c16.3,8.9,26,13.6,32.9,16l2.6,0.9l5.5-11.5c3-6.2,5.6-11.7,5.6-12c0.1-0.3-9.5-5.3-22.6-11.7
		c-22-10.7-22.8-11.1-22.9-12.5c-0.1-1,1-3.9,3.6-9.3l3.8-7.8h2c1.5,0,6.8,2.3,23.6,10.5c12,5.8,21.9,10.5,22.1,10.6
		s4.4-8.2,9.2-18.2l8.9-18.4l2.2,0c1.6,0,4.6,1,10.2,3.3l8,3.3l0.1,1.8c0.1,1.4-4.5,11.3-23.5,50.8l-23.6,49l-1.7,0.1
		C318.8,896.4,315.5,895.3,309,892.5L309,892.5z"/>
	<path fill="#fff" d="M648.8,890.6c-1.3-0.3-2-1.3-7.1-11.6c-4-8-5.6-11.8-5.6-13.1c0-1.8,0-1.9,1.7-1.9c0.9,0,2.9,0.5,4.4,1.2
		c5,2.3,10.2,3.4,16.2,3.4c6.9,0,11.5-1.2,18.2-4.6c6.6-3.5,10.7-6.8,12.3-10.3c1.7-3.3,1.5-5.2-0.8-8c-3.3-4-8.1-4.7-18.5-2.5
		c-14.8,3.1-18.9,3.8-25.3,4c-8.5,0.3-13-0.3-18-2.7c-6.2-3-10-6.8-13.4-13.5c-4.5-8.8-4.8-21.2-0.8-29.3
		c7.7-15.3,29-27.3,51.2-28.7c5.2-0.3,11.3,0.2,15.2,1.3c1.9,0.5,2,0.7,6.9,10.8c5.5,11.5,6.1,13.7,3.5,13.7c-0.8,0-2.6-0.5-4-1.2
		c-11.8-6-25.6-5.1-40.1,2.5c-5.6,3-10.2,7-11.8,10.4c-1.5,3-1.5,4.3-0.2,7.2c1.2,2.8,2.2,3.8,4.5,5c3.2,1.7,7.8,1.2,21.5-1.7
		c12-2.5,12.3-2.5,21.2-2.6c8.2,0,9.3,0,12.5,1.1c5.2,1.8,8,3.5,11.2,6.8c3.4,3.7,5.8,7.5,7.5,12.2c1,2.8,1.3,4.5,1.5,9.7
		c0.3,8.8-1,13.1-6.1,19.7c-7.2,9.5-23.5,18.5-38.3,21.5C663.9,890.6,651.1,891.2,648.8,890.6L648.8,890.6z"/>
	<path fill="#fff" d="M213.8,826.5c-22.8-2.5-46.6-22.8-53.1-45.2c-2.6-8.9-2.8-19.8-0.4-28.9c4.9-19.2,21.8-36.7,40.6-42.1
		c18-5.2,37.2-0.8,53.4,12.2c10.5,8.5,19.1,20.8,22.2,32c3.3,12,2.2,25.7-3,36.8c-2.8,6-7,12.2-11.9,17.3
		C248.4,822.5,232.5,828.5,213.8,826.5z M226.5,803c15.2-4.8,28.6-21.5,28.6-36c0.1-8.4-4.7-18.3-12.2-25.2
		c-6.6-6.2-13.6-9.8-21.1-10.8c-3.7-0.5-4.8-0.5-8.1,0.2c-7.5,1.6-12.6,4.3-18.9,10.4c-8.8,8.1-13.9,19-13.2,28.2
		c0.9,12.5,11.1,25.9,24.2,31.9C213.1,804.9,219.2,805.3,226.5,803L226.5,803z"/>
	<path fill="#fff" d="M765.9,774.2c-4.5-1.7-10.2-7.1-12.5-11.6c-1-2.1-1.2-3.2-1.2-7.9c0-5.2,0.1-5.7,1.5-8.2c2.1-3.8,7.4-9,11-10.8
		c2.7-1.3,3.5-1.5,8-1.5c6.4,0,8.5,1,13.8,6.2c5.3,5.3,6.2,7.4,6.2,14c0,4.8-0.2,5.5-1.5,8c-1.8,3.5-7.3,9-10.8,10.8
		c-2.4,1.2-3.4,1.4-7.8,1.5C769.3,774.9,767.2,774.8,765.9,774.2z"/>
	<path fill="#fff" d="M99.2,713.2c-10.8-17.5-13.7-23-15.8-29.4c-2.2-6.8-2.7-10.5-2.4-18.2c0.2-5.9,0.4-7.3,1.6-10.4
		c3.6-9.4,13.5-17.8,25.9-22.1c4.4-1.5,5.9-1.8,11.2-2c7.2-0.3,11.7,0.5,17.2,3.2c2,1,3.8,1.6,3.9,1.3c0.1-0.2,4.7-10,10.3-21.9
		l10.1-21.5l1.8-0.2l1.7-0.2l4.6,11.4c3.2,8.1,4.6,12,4.6,13.5c0,1.8-1.6,5.2-8.8,19.2l-8.8,17.2l1.2,1.7c0.6,1,2.9,4.9,5,8.8
		c2.1,3.8,4.1,7.2,4.3,7.4c0.2,0.2,6.4-2.8,13.6-6.8c9.9-5.5,13.6-7.3,14.9-7.3c1.7,0,1.9,0.2,6.9,7.5c4.4,6.3,5.1,7.8,5.1,9.5v2
		l-47.4,26.3c-40.6,22.5-47.7,26.3-49.3,26.3h-2.1C108.7,728.5,99.3,713.2,99.2,713.2z M132.9,690.8c8.1-4.6,14.9-8.4,15-8.5
		c0.2-0.2-7.2-13.5-9.5-17c-2.9-4.2-7.2-8.5-10.4-10.1c-2.3-1.2-3.1-1.3-5.8-1.1c-7.3,0.7-15.8,6.2-18.7,12.3
		c-1.2,2.7-1.2,2.7-0.4,6.4c1.2,5.2,4.1,11.5,9.2,19.7c3,4.8,4.6,6.9,5.1,6.8C117.8,699.2,124.8,695.3,132.9,690.8L132.9,690.8z"/>
	<path fill="#fff" d="M852.1,694.2c-8.9-2.3-18.2-7.9-23.2-14c-4.5-5.5-7.4-13.2-7.5-19.4c0-1.3-0.2-2.4-0.5-2.4c-0.3,0-10.5,1.9-22.7,4.2
		S775,667,773.8,667c-2.2,0-2.3,0-2.3-1.5c0-1,2-4.8,6.8-12.4l6.7-10.9l19.9-3c11-1.6,20.2-3.1,20.5-3.3c0.3-0.3,0.8-1.3,1.2-2.3
		c0.3-1,2.2-5.3,4.2-9.5l3.7-7.6l-8.8-4.2c-4.8-2.3-11.2-5.3-14-6.6l-5.1-2.4l0-2c0-1.3,1.1-4.8,3.3-10.6l3.3-8.7h1.6
		c1,0,9.6,3.8,25.2,11.4c82.7,39.7,74.7,35.7,74.8,37.5c0.1,1.2-1.5,5.5-6.5,16.5c-3.6,8.2-7.5,16.8-8.7,19.2
		c-8,16-17.3,25.6-27.4,28.3C868,696,857.6,695.7,852.1,694.2L852.1,694.2z M868.4,671.5c2.3-1.2,6.5-5.5,8.8-9.1
		c2.5-3.8,4.2-7.3,7.1-14.5l2.6-6.3l-16-7.7c-8.8-4.2-16.2-7.8-16.5-7.8c-0.5-0.2-7.9,15-9.6,20.1c-1.9,5.5-2.2,10-0.9,13
		c2.1,4.8,8.8,10.5,15,12.7C862.7,673.2,865.3,673.1,868.4,671.5L868.4,671.5z"/>
	<path fill="#fff" d="M50.8,608.4c-1.2-3.6-5.8-21.7-5.8-23.2v-2l22.6-19.4c12.4-10.7,23.7-20.3,25-21.5c1.3-1.1,2.4-2.1,2.4-2.2
		c0.1-0.2-2.2-1.1-4.8-2.1c-15.2-5.7-56.9-22-57.3-22.4c-0.5-0.5-1.8-15.9-1.8-21.4c0-2.5,0.2-3.7,0.6-3.8
		c1.2-0.4,108.2-13.8,109.7-13.8h1.6l0.4,6.6c0.1,3.6,0.2,8.4,0.1,10.6l-0.1,4l-24.5,3.1c-13.4,1.7-30.3,3.8-37.3,4.7l-12.9,1.6
		l8.7,3.4c4.7,1.9,17.4,6.8,28.1,11l19.5,7.7l0.6,3c0.3,1.7,0.8,4.5,0.9,6.2l0.3,3.3l-22,19.7c-12.2,10.8-22,19.8-22,19.8
		c0.1,0,16.1-3.1,35.6-7.1c19.5-4,36.1-7.2,36.8-7.2s1.4,0.2,1.6,0.5c0.9,1.4,5.9,18.3,5.7,19.5c-0.1,1.2-0.4,1.3-4.6,2.2
		c-2.4,0.5-26.5,5.2-53.4,10.4c-26.9,5.2-49.9,9.5-51.2,9.5C51.9,609,50.9,608.8,50.8,608.4L50.8,608.4z"/>
	<path fill="#fff" d="M918.5,581.5c-4.5-0.8-8.3-1.4-8.3-1.4c-0.5-0.2,0.2-4,2.4-14c2.7-12.3,6.2-32.5,6.5-37.3l0.2-3l-11.9-2
		c-6.5-1-12-1.8-12.2-1.7c-0.2,0.2-0.5,2.6-0.8,5.4c-0.7,8.3-4.2,28.5-7.2,41.3c-0.3,1.5-1.8,1.5-12.3-0.2l-8.4-1.3v-1.5
		c0-0.8,0.8-5,1.7-9.3c2.7-11.8,5.8-31.5,5.8-35.8c0-2.6,1.7-2-13.6-4.5l-10.4-1.7l-0.2,1.5c-0.1,0.8-0.6,4.2-1,7.5
		c-0.8,6.5-4.8,27.5-7.3,39.2l-1.5,7.1h-1.5c-0.8,0-5.5-0.6-10.2-1.3l-8.7-1.3v-1.8c0-1,0.7-4.8,1.5-8.3c4.2-18.2,6.7-33.3,9-54
		c0.8-7.2,1.6-13.4,1.8-13.7c0.2-0.3,1.2-0.4,2.7-0.2c2.3,0.3,103.5,16.6,106.5,17.1c1.2,0.2,1.6,0.5,1.6,1.4c0,2.3-3,28.5-4.2,36.5
		c-2,13.8-6.8,36.8-7.8,38.2C929.7,583.2,928.1,583.1,918.5,581.5z"/>
	<path fill="#fff" d="M831.3,464c-0.8-11.4-0.8-17-0.2-17.1c0.3-0.1,17.2-2.2,37.4-4.8s36.8-4.6,36.8-4.7c0.1-0.1-12.5-5-27.8-11.1l-28-11
		l-0.8-4.3c-0.5-2.4-0.8-5.2-0.8-6.4v-2l22-19.6c12.1-10.8,21.9-19.7,21.9-19.8c0,0-16.1,3.1-35.6,7.1c-19.5,4-36.2,7.2-37,7.2h-1.5
		l-2.9-9.1c-1.7-5.3-2.8-9.8-2.7-10.6l0.2-1.5l16.2-3.1c9-1.7,33-6.4,53.4-10.4c20.4-4,38.1-7.2,39.3-7.2h2.2l0.8,2.6
		c2.7,9.5,5.3,20,5.3,21.4c0,1.7-0.9,2.5-24,22.5c-13.2,11.4-24.5,21.1-25.1,21.5c-0.6,0.5-1,0.9-0.8,1c0.2,0.1,14.1,5.5,31,12.1
		c16.9,6.5,30.9,12,31.1,12.2c0.5,0.5,2.2,23.6,1.8,24.7c-0.2,0.5-0.8,0.9-1.5,0.9s-24.2,3-52.4,6.5c-28.2,3.6-52.7,6.6-54.5,6.8
		l-3.3,0.3L831.3,464L831.3,464z"/>
	<path fill="#fff" d="M131,454c-8.2-1.4-12.6-2.1-68-11c-15.5-2.5-28.8-4.6-29.7-4.8c-1.2-0.2-1.4-0.5-1.4-2c0-3,2.9-28.2,4.3-36.8
		c2.6-16.9,7-37.5,8.2-37.9c0.7-0.2,16.5,2,18.8,2.7c1.4,0.4,1.1,3.4-1.7,15.7c-2.8,12.9-5.9,30.7-6.1,35.5l-0.2,3.2l11.9,2
		c6.6,1.1,12,1.9,12.2,1.7c0.1-0.1,0.4-2.8,0.7-5.8c0.6-6.2,3.8-25.1,5.9-35.3l1.4-6.5l2-0.1c1.1-0.1,5.5,0.5,9.8,1.1
		c4.3,0.7,8,1.2,8.1,1.2c0.7,0,0.1,5.6-1.2,11.8c-2.6,11.5-6.3,36.3-5.8,37.1c0.1,0,5.4,1,12.1,2l11.9,1.9l0.3-1.8
		c0.2-1,0.6-3.9,0.9-6.5c0.6-5,6.2-34.5,8.1-42.5l1.1-4.5l2.1,0c1.1,0,5.7,0.6,10.1,1.4c7.9,1.4,8,1.4,8.1,2.6
		c0.1,0.8-0.9,5.9-2.1,11.5c-4.3,19.5-6.4,32.1-8.6,52.7c-0.7,6.4-1.4,11.8-1.5,12.1C142.4,455.8,140.4,455.6,131,454L131,454z"/>
	<path fill="#fff" d="M108.7,338.9l-49.2-23.6v-1.8c0-2.5,14.2-34.6,18.6-41.6c7.7-12.8,15.3-19.9,23.7-22.1c4.8-1.2,14.6-1,20.3,0.4
		c13.8,3.6,24.3,12,28.5,22.8c1.4,3.5,2.4,8.1,2.4,11.1c0,1,0.2,1.9,0.4,1.9c0.2,0,6.4-1.1,13.6-2.5c28.2-5.4,31.4-6,33.4-6
		c2.1,0,2.1,0,2.1,1.9c0,1.5-1.2,3.8-6.2,12c-3.4,5.5-6.6,10.3-6.9,10.6c-0.3,0.2-9.1,1.8-19.6,3.3c-10.4,1.5-19.4,3-20,3
		c-0.7,0.1-1.4,1.4-2.6,4.1c-0.9,2.1-2.9,6.5-4.4,9.8L140,328l7.4,3.5c4.1,2,10.4,5,14,6.7l6.6,3.1v1.8c0,1-1.5,5.6-3.4,10.5
		l-3.4,8.8l-1.8,0C158.3,362.4,143.8,355.7,108.7,338.9L108.7,338.9z M124.3,310.6c4.4-9.1,6.6-15.3,7-19.6c0.3-2.8,0.2-3.4-1.2-6.2
		c-1.1-2.2-2.6-4.1-4.7-6c-3.4-3.1-9.6-6.5-12.8-7c-5.6-1-11.1,3.3-16.8,12.8c-1.8,2.9-8.3,18-8.1,18.4c0.2,0.2,32,15.5,32.5,15.5
		C120.4,318.5,122.2,314.9,124.3,310.6z"/>
	<path fill="#fff" d="M809,351.4c-0.2-0.6-2.2-5.7-4.5-11.3c-3-7.6-4-10.7-4-12.5c0-2,1.1-4.5,8.7-19.4c8-15.6,8.7-17.1,8-18
		c-0.4-0.5-2.8-4.6-5.2-9.1c-3.4-6.1-4.8-8-5.3-7.9c-0.5,0.1-6.5,3.5-13.3,7.2c-9.5,5.3-13,7-14.3,7c-1.7,0-2-0.2-7.1-7.7
		c-5.7-8.4-6.3-10.1-4.2-11.5c0.6-0.4,22-12.4,47.5-26.5c40.5-22.6,46.7-25.8,48.5-25.8l2,0.1l9.5,15.5
		c12.2,20.1,14.6,24.6,16.8,33.2c1.5,5.5,1.8,16.2,0.7,20.9c-2.2,9.4-9.8,17.8-20.8,23.2c-7.6,3.7-10.7,4.4-19.2,4.4
		c-6.6,0-7.9-0.1-11-1.2c-1.9-0.6-4.5-1.8-5.7-2.5c-1.2-0.6-2.2-1.1-2.4-1c-0.2,0.1-4.8,10-10.5,21.9L813,352.2l-1.8,0.1
		C809.8,352.5,809.4,352.3,809,351.4L809,351.4z M856,289.5c4.5-1.5,7.7-3.4,10.6-6c6.3-5.8,6.5-10.8,0.5-22.5
		c-1.7-3.4-8.5-14.9-9.5-15.9c-0.1-0.1-7.2,3.7-15.7,8.4c-11.5,6.4-15.5,8.8-15.2,9.4c0.7,1.9,8.1,14.7,10,17.4
		c2.6,3.6,6.5,7.4,9.7,9C849.3,290.8,852.4,290.9,856,289.5L856,289.5z"/>
	<path fill="#fff" d="M752.2,235.9c-12.9-1.2-25.5-7.4-36.3-17.9c-17.7-17-23.8-37.2-17.5-58.1c4.4-14.9,17-29.7,31.5-36.9
		c11.5-5.8,26.4-7.1,39.5-3.3c19,5.4,37,22.6,43.8,41.6c4.2,11.6,3.5,26.9-1.8,38.6c-5.7,12.9-17.1,24.9-29.7,30.9
		c-6.1,2.9-10.8,4.3-17.8,5C758.5,236.5,758.1,236.5,752.2,235.9L752.2,235.9z M762.1,213.1c15.2-3.9,29.3-19.9,30.8-34.7
		c0.6-6.8-3.2-17.1-8.5-23.2c-10.6-12.1-23.5-17.3-35-14.1c-14,3.9-27.2,18.2-29.8,32.5c-2.4,13.2,8.2,29.9,23.6,37.2
		C749.7,213.9,755.9,214.6,762.1,213.1z"/>
	<path fill="#fff" d="M201.4,207.5c-3.4-0.9-6.1-2.6-9.6-6.2c-5.1-5.1-5.9-7.2-5.9-14.1c0-6.1,0.2-6.9,4.1-11.8c2.4-3.1,6.2-6.1,9.6-7.6
		c1.8-0.9,3.3-1.1,6.8-1.1c6,0,9,1.4,13.9,6.4c5.1,5.1,6.1,7.3,6.1,13.9c-0.1,4.8-0.1,5.5-1.4,8c-2,3.8-7.9,9.6-11.5,11.3
		C210.2,207.8,204.6,208.3,201.4,207.5L201.4,207.5z"/>
	<path fill="#fff" d="M300.9,170.9c-4.3-0.6-6.8-1.6-7.3-3.1c-0.2-0.6-2.5-5.3-5-10.4c-2.5-5.1-4.5-9.9-4.5-10.6c0-1.2,0.1-1.4,1.7-1.4
		c1,0,3.4,0.8,5.4,1.8c11.1,5.3,24.6,4.3,38.4-2.8c7-3.6,11.9-8.3,13-12.6c1-3.9-2.2-9.6-6.4-10.9c-3-1-10-0.3-21.7,2.2
		c-20,4.3-31.4,3.6-40.4-2.6c-4.5-3.1-9.6-11-11.3-17.4c-3-11.6-0.2-21.6,8.1-30.1c11.7-12,31.4-19.8,49.1-19.5c6,0.1,7,0.4,8.1,2.5
		c7.3,14.4,10.4,21.3,10.4,22.8c0,1.6-0.1,1.7-1.5,1.7c-0.9,0-3.5-0.8-6-1.8c-6.3-2.5-13-3.6-18.5-2.8c-10.8,1.3-23.9,8.6-26.9,14.8
		c-1.4,2.8-1.3,4.6,0.2,7.2c3.2,5.5,7.3,5.8,25.2,2.2c20.4-4.2,30.3-4.1,38.8,0.4c6.4,3.4,11,9.2,13.9,17.5
		c1.4,3.9,1.5,4.9,1.5,10.8c0,8.1-1,11.8-4.8,17.6c-6,9-16,16.1-29.2,20.9C322.2,170.6,309.2,172.1,300.9,170.9L300.9,170.9z"/>
	<path fill="#fff" d="M613.7,153.1l-8.2-3.4v-1.8c0-1.4,3-8.1,11.8-26.2c6.5-13.4,17-35.2,23.3-48.4s11.8-24.3,12-24.6c1-1.2,3.4-0.6,12.7,3.3
		c14.5,6.1,22.2,9.8,38.2,18.1c18.5,9.8,19,10,19,11.8c0,0.8-1.7,4.9-3.8,9.2L715,99h-1.8c-1.3,0-5-1.8-15.2-7.3
		c-12.8-6.9-23.9-12.3-30.2-14.6L665,76l-5.8,11.8c-3.2,6.5-5.8,11.9-5.8,12.1s10.2,5.2,22.8,11.3l22.8,10.9v2.1
		c0,1.7-0.8,3.8-3.6,9.4l-3.5,7.3H690c-1.5,0-6.9-2.4-23-10.2c-11.7-5.7-21.6-10.4-22.2-10.6c-0.9-0.2-2,1.8-9.8,18l-8.8,18.2H624
		C622.4,156.4,619.5,155.5,613.7,153.1L613.7,153.1z"/>
	<path fill="#fff" d="M573,139.8c-7.2-1.9-7.8-2.1-7.9-3.3c0-0.7,2.7-17.8,6.1-38c3.5-20.2,6.2-36.8,6.2-36.8s-8.4,10.3-18.5,23.2
		c-17.5,21.9-18.5,23.2-20,23.2c-0.9,0-3.7-0.3-6.2-0.6l-4.7-0.6l-12.5-27.2c-9.1-19.7-12.6-26.9-12.9-26.2c-0.2,0.5-1,6.8-1.6,13.9
		c-2.1,21.3-5.8,56.8-6,59.2l-0.3,2.1h-10.8H473v-2.4c0-1.3,1.5-16.6,3.2-33.9s4.3-41.5,5.5-54c1.3-12.4,2.4-22.6,2.5-22.7
		c0.2-0.3,27,1,27.2,1.4c0.1,0.1,6.2,13.6,13.5,29.9c11.9,26.7,13.3,29.6,14,28.8c0.4-0.4,9.5-11.8,20.2-25.4
		C574.5,31,579,25.7,580,25.6c0.7,0,6.3,1,12.5,2.4c6.2,1.4,11.3,2.5,11.4,2.5c0.8,0-1,11.8-8.7,58.2l-8.9,53.4l-2.8-0.1
		C582,141.9,577.2,140.9,573,139.8z"/>
	<path fill="#fff" d="M410.3,134.6c-0.1-0.8-1.9-9.7-3.9-19.9l-3.5-18.5l-3.1-3.5c-1.8-1.9-13.4-14.7-26-28.2c-21-22.8-22.8-24.9-22.8-26.5v-1.8
		l10.4-2.8c5.7-1.6,11-2.9,12-2.9c1.2,0,2,0.5,3.2,1.9c6.8,7.8,33.6,37.6,33.9,37.6c0.1,0,4.2-11.3,9-25.1s8.7-25.1,8.8-25.2
		c0.2-0.3,18.4-2.1,20.9-2.1h2.5v1.9c0,1.2-4.7,14.6-13,37.2c-7.1,19.5-13,35.8-13,36.3c0,0.5,1.6,9,3.5,18.9
		c2,9.8,3.5,18.6,3.5,19.3v1.4l-9.4,1.8C411.5,136.4,410.7,136.4,410.3,134.6L410.3,134.6z"/>
</g>
</svg>
