<svg version="1.1" xmlns="http://www.w3.org/2000/svg" xmlns:xlink="http://www.w3.org/1999/xlink" x="0px" y="0px"
	 viewBox="0 0 67.2 67.2" style="enable-background:new 0 0 67.2 67.2;" xml:space="preserve">
<style type="text/css">
	.loader-st0{fill-rule:evenodd;clip-rule:evenodd;fill:#FFFFFF;}
	.loader-st1{fill:url(#loader);}
</style>
<g>
	<path class="loader-st0" d="M67.2,33.6c0,18.6-15,33.6-33.6,33.6V64C50.4,64,64,50.4,64,33.6C64,16.8,50.4,3.2,33.6,3.2V0
		C52.2,0,67.2,15,67.2,33.6z"/>
	<linearGradient id="loader" gradientUnits="userSpaceOnUse" x1="16.8002" y1="33.5998" x2="16.8004" y2="67.2">
		<stop  offset="0" style="stop-color:#FFFFFF"/>
		<stop  offset="1" style="stop-color:#FFFFFF;stop-opacity:0"/>
	</linearGradient>
	<path class="loader-st1" d="M0,33.6c0,18.6,15,33.6,33.6,33.6V64C16.8,64,3.2,50.4,3.2,33.6c0-16.8,13.6-30.4,30.4-30.4V0
		C15,0,0,15,0,33.6z"/>
</g>
</svg>
