<svg version="1.1" xmlns="http://www.w3.org/2000/svg" xmlns:xlink="http://www.w3.org/1999/xlink" x="0px" y="0px"
	 viewBox="0 0 24.9 21" style="enable-background:new 0 0 24.9 21;" xml:space="preserve">

<g>
	<path fill="currentcolor" d="M0,12.2V9c0-1.3,1.1-2.4,2.4-2.4c1,0,2-0.4,2.7-1.2l3.2-3.5C9.5,0.7,10,0,10.5,0c0.4,0,0.9,0.1,1.1,0.4
		c0.3,0.4,0.3,1.2,0.3,2.9v14.4c0,1.7,0,2.5-0.3,2.9c-0.3,0.3-0.7,0.5-1.1,0.4c-0.5-0.1-1.1-0.7-2.2-1.9l-3.2-3.5
		c-0.7-0.7-1.6-1.2-2.7-1.2C1.1,14.6,0,13.5,0,12.2z"/>
	<path fill="currentcolor" d="M15.2,5.8c0.4-0.4,1-0.4,1.4,0l3.3,3.3l3.3-3.3c0.4-0.4,1-0.4,1.4,0c0.4,0.4,0.4,1,0,1.4l-3.3,3.3l3.3,3.3
		c0.4,0.4,0.4,1,0,1.4c-0.4,0.4-1,0.4-1.4,0l-3.3-3.3l-3.3,3.3c-0.4,0.4-1,0.4-1.4,0c-0.4-0.4-0.4-1,0-1.4l3.3-3.3l-3.3-3.3
		C14.8,6.8,14.8,6.2,15.2,5.8z"/>
</g>
</svg>
