<?xml version="1.0" encoding="utf-8" ?>
<svg xmlns="http://www.w3.org/2000/svg" xmlns:xlink="http://www.w3.org/1999/xlink" width="1138" height="638">
	<path fill="#191819" d="M0 0L1137.03 0C1137.53 0.789226 1137.82 1.50791 1137.9 2.44167C1138.31 7.50646 1138 12.8184 1138 17.9075L1138 46.9924L1138.01 139.859L1138 499.413L1138 598.022L1138 624.204C1138 627.949 1138.47 632.415 1137.85 636.061C1137.72 636.761 1137.4 637.405 1137.03 638L0 638L0 0Z"/>
	<path fill="#F6C79D" d="M589.399 391.65L591.846 391.473L592.735 392.27C592.796 393.733 592.812 395.164 592.756 396.627C590.086 396.679 587.447 397.646 584.899 398.387C583.847 397.969 583.68 397.62 582.999 396.744C584.911 394.822 587.226 393.266 589.399 391.65Z"/>
	<path fill="#EA886D" d="M562.772 278.58C566.518 278.649 570.138 276.915 573.885 277.436C570.469 281.814 566.336 284.51 561.225 286.608C559.075 285.776 556.881 283.75 554.857 282.508C553.813 281.375 552.149 280.484 550.871 279.601C553.299 278.489 559.375 279.578 562.772 278.58Z"/>
	<path fill="#722E27" d="M591.203 499.568C591.153 499.451 591.108 499.333 591.055 499.218C589.981 496.876 587.438 495.698 586.482 493.561C589.581 494.139 593.99 500.141 596.716 502.258C598.703 503.517 611.86 514.146 612.146 515.448C612.248 515.913 612.251 516.327 612.253 516.803L612.332 517.642C611.695 519.725 610.966 521.667 610.061 523.649L609.793 521.485C608.619 521.184 607.196 520.731 606.484 519.758L609.478 519.578L609.81 519.041C608.315 517.06 597.307 513.642 594.143 508.315C593.582 507.37 593.235 506.748 593.529 505.665L594.432 506.059C594.775 506.772 595.045 507.385 595.636 507.935L595.939 507.18C592.647 503.506 589.724 505.072 585.316 504.213L585.152 503.647C588.079 503.597 591.56 502.132 594.29 502.975C593.034 501.951 591.851 501.111 591.203 499.568Z"/>
	<defs>
		<linearGradient id="gradient_0" gradientUnits="userSpaceOnUse" x1="607.13721" y1="509.45456" x2="614.26605" y2="502.59827">
			<stop offset="0" stop-color="#6F2420"/>
			<stop offset="1" stop-color="#973B2D"/>
		</linearGradient>
	</defs>
	<path fill="url(#gradient_0)" d="M607.637 500.399C608.985 501.162 611.003 502.049 612.553 502.181C615.17 502.405 617.077 498.445 619.074 497.044L619.472 496.768C617.541 503.46 615.827 511.634 612.332 517.642L612.253 516.803C612.251 516.327 612.248 515.913 612.146 515.448C611.86 514.146 598.703 503.517 596.716 502.258L598.424 500.366C600.982 499.434 604.972 499.968 607.637 500.399Z"/>
	<path fill="#E9A078" d="M603.921 373.013C606.115 377.67 608.33 381.68 612.049 385.313C609.965 385.794 597.191 387.562 596.481 388.21C596.199 388.467 596.073 388.856 595.869 389.179C595.986 391.563 596.214 393.586 595.057 395.751C594.228 396.35 593.768 396.478 592.756 396.627C592.812 395.164 592.796 393.733 592.735 392.27L591.846 391.473L589.399 391.65C589.514 389.986 589.742 388.325 590.221 386.725C592.362 379.577 597.727 376.326 603.921 373.013Z"/>
	<defs>
		<linearGradient id="gradient_1" gradientUnits="userSpaceOnUse" x1="587.89197" y1="492.35818" x2="595.2666" y2="486.43289">
			<stop offset="0" stop-color="#691E1E"/>
			<stop offset="1" stop-color="#932E27"/>
		</linearGradient>
	</defs>
	<path fill="url(#gradient_1)" d="M568.658 496.284C575.074 487.127 580.985 477.978 586.12 468.033C587.337 470.858 585.762 472.55 586.724 474.826C589.108 480.461 602.009 494.653 606.949 498.564L607.637 500.399C604.972 499.968 600.982 499.434 598.424 500.366L596.716 502.258C593.99 500.141 589.581 494.139 586.482 493.561C587.438 495.698 589.981 496.876 591.055 499.218C591.108 499.333 591.153 499.451 591.203 499.568C588.636 498.202 585.278 495.117 583.827 492.597L584.119 491.843L585.167 492.681L585.373 492.337L583.448 489.955C584.173 489.738 584.433 489.792 585.151 489.894L585.431 489.936C583.873 487.913 582.295 485.903 580.82 483.819C580.417 484.436 580.143 484.897 579.486 485.263C579.332 485.348 579.176 485.427 579.021 485.51C579.372 486.243 579.432 486.646 579.392 487.457L578.213 486.582L578.058 485.275L579.197 484.32C574.667 487.077 573.491 494.173 568.932 496.178C568.842 496.218 568.749 496.249 568.658 496.284Z"/>
	<defs>
		<linearGradient id="gradient_2" gradientUnits="userSpaceOnUse" x1="438.5943" y1="186.79037" x2="434.10571" y2="199.16354">
			<stop offset="0" stop-color="#28241D"/>
			<stop offset="1" stop-color="#3C4437"/>
		</linearGradient>
	</defs>
	<path fill="url(#gradient_2)" d="M394.109 200.85C392.861 197.611 390.939 192.697 391.425 189.205C395.38 186.128 427.4 183.521 433.708 183.681C438.721 187.782 443.056 198.531 443.625 204.982Q443.712 205.909 443.699 206.84C440.592 203.402 438.164 199.416 435.654 195.538Q435.301 195.544 434.948 195.559C428.786 195.861 397.215 197.51 394.109 200.85Z"/>
	<defs>
		<linearGradient id="gradient_3" gradientUnits="userSpaceOnUse" x1="733.34344" y1="448.50595" x2="725.69049" y2="420.16772">
			<stop offset="0" stop-color="#75453B"/>
			<stop offset="1" stop-color="#916E56"/>
		</linearGradient>
	</defs>
	<path fill="url(#gradient_3)" d="M693.351 424.858C698.179 425.622 703.078 427.385 707.871 428.516C716.94 430.656 745.482 436.587 753.345 434.871C753.864 434.758 754.228 433.863 754.515 433.411C759.887 436.26 767.439 449.714 769.21 455.481C769.726 457.163 770.106 458.775 770.253 460.528L770.136 460.716C768.421 456.602 767.699 452.963 764.501 449.621C759.025 449.222 716.285 446.179 714.223 447.695C713.878 447.948 713.705 448.179 713.435 448.49C712.187 445.151 707.61 440.466 705.048 437.904L705.704 437.029C705.674 436.904 705.659 436.775 705.615 436.654C704.294 432.982 696.766 426.538 693.351 424.858Z"/>
	<path fill="#1B0D10" d="M587.488 559.721C589.241 561.722 591.117 563.77 592.561 566.011C594.057 567.508 596.378 569.194 597.567 570.869C604.988 576.056 616.8 583.736 625.937 585.088L626.401 585.772C626.3 585.835 626.199 585.896 626.1 585.96C623.4 587.686 621.082 590.01 618.445 591.861C607.287 599.697 594.84 605.244 580.855 603.237C578.116 602.251 575.359 602.059 572.571 601.337C566.868 599.859 561.831 597.462 556.634 594.725C554.552 593.628 551.865 592.462 550.187 590.788C549.103 589.707 549.064 589.403 549.056 587.971C557.241 583.808 566.724 578.961 573.751 572.965C578.574 568.85 582.706 563.911 587.488 559.721Z"/>
	<path fill="#191819" d="M592.561 566.011C594.057 567.508 596.378 569.194 597.567 570.869C597.199 571.831 596.65 572.927 596.611 573.956C596.517 573.914 596.419 573.878 596.328 573.829C594.008 572.579 589.943 570.418 589.236 567.841C590.048 566.431 591.076 566.458 592.561 566.011Z"/>
	<defs>
		<linearGradient id="gradient_4" gradientUnits="userSpaceOnUse" x1="609.88043" y1="572.09454" x2="612.01532" y2="588.23743">
			<stop offset="0" stop-color="#5B3C2B"/>
			<stop offset="1" stop-color="#83633B"/>
		</linearGradient>
	</defs>
	<path fill="url(#gradient_4)" d="M597.567 570.869C604.988 576.056 616.8 583.736 625.937 585.088L626.401 585.772C626.3 585.835 626.199 585.896 626.1 585.96C623.4 587.686 621.082 590.01 618.445 591.861C607.287 599.697 594.84 605.244 580.855 603.237C595.545 603.478 610.968 598.229 621.659 587.946C612.027 584.974 604.765 579.646 596.611 573.956C596.65 572.927 597.199 571.831 597.567 570.869Z"/>
	<path fill="#FEFDFD" d="M651.108 540.278C652.144 539.152 653.195 537.429 653.093 535.818C653.069 535.449 652.98 535.211 652.881 534.842C662.035 540.932 671.849 545.256 682.733 547.077C685.113 547.475 690.911 547.236 692.03 549.002C689.725 560.989 680.638 573.338 670.652 580.137C659.557 587.692 645.813 589.942 632.731 587.414C630.578 586.999 628.48 586.472 626.401 585.772L625.937 585.088C632.257 578.296 649.344 555.554 649.187 546.253C649.668 545.728 650.122 545.194 650.489 544.579C651.27 543.27 651.43 541.742 651.108 540.278Z"/>
	<path fill="#C5A47D" d="M478.331 101.734C484.094 88.065 493.323 76.2143 507.102 70.0055C521.752 63.4041 536.358 64.6879 551.055 70.279C550.97 70.3768 550.886 70.4755 550.8 70.5724C547.854 73.8921 544.181 76.5494 541.119 79.7772C531.65 89.7607 524.077 102.999 520.168 116.186L513.489 113.132C507.86 109.323 497.713 108.583 491.304 105.049C491.168 104.908 491.045 104.754 490.897 104.627C487.66 101.852 473.534 102.22 468.868 102.192C471.927 101.503 475.209 101.726 478.331 101.734Z"/>
	<defs>
		<linearGradient id="gradient_5" gradientUnits="userSpaceOnUse" x1="607.48535" y1="576.23773" x2="625.56335" y2="539.02399">
			<stop offset="0" stop-color="#180A10"/>
			<stop offset="1" stop-color="#291E16"/>
		</linearGradient>
	</defs>
	<path fill="url(#gradient_5)" d="M609.793 521.485L610.061 523.649C609.997 525.187 610.877 525.906 611.892 527.007C619.718 535.495 630.102 541.655 640.595 546.189C642.412 546.974 645.056 548.422 647.001 548.407C647.197 548.405 647.392 548.39 647.588 548.382C647.923 547.959 648.821 546.47 649.187 546.253C649.344 555.554 632.257 578.296 625.937 585.088C616.8 583.736 604.988 576.056 597.567 570.869C596.378 569.194 594.057 567.508 592.561 566.011C591.117 563.77 589.241 561.722 587.488 559.721C588.929 555.687 594.358 552.904 595.495 548.713L594.371 548.144C594.338 545.623 607.652 524.489 609.793 521.485Z"/>
	<path fill="#9A7BBC" d="M627.811 75.2452C638.483 70.5886 653.545 71.1125 664.258 75.3543C675.141 79.6629 685.319 88.7727 689.936 99.6482C691.78 103.989 693.034 108.639 695.101 112.871C696.168 113.072 697.204 113.19 698.287 113.272L696.338 113.689C695.154 115.937 697.215 118.247 695.872 120.656C679.341 118.017 664.064 130.629 654.84 130.127C654.918 129.91 655.055 129.579 655.087 129.331C655.451 126.518 652.898 119.608 651.234 117.292C651.337 116.839 651.399 116.373 651.357 115.906C650.428 105.535 635.526 82.3062 627.811 75.2452Z"/>
	<path fill="#8D302C" d="M684.011 241.887C684.024 243.4 683.716 243.774 682.613 244.85C680.329 247.078 677.165 248.977 674.463 250.644L674.834 250.944L676.467 250.711C677.884 248.761 679.966 248.513 682.254 248.151C691.111 246.748 725.104 243.462 732.239 246.122C731.681 247.576 730.443 248.476 729.054 249.118C728.666 249.297 728.264 249.441 727.86 249.581C724.762 256.042 682.608 275.011 675.193 277.608C655.634 284.456 627.177 292.619 606.901 285.913L603.484 284.463C605.475 283.781 607.309 281.541 609.194 280.428C613.318 277.993 617.915 276.178 621.927 273.581C622.627 273.128 623.169 272.444 623.644 271.771C628.351 268.881 635.931 267.886 641.289 266.184C652.759 262.54 675.812 251.016 684.011 241.887Z"/>
	<defs>
		<linearGradient id="gradient_6" gradientUnits="userSpaceOnUse" x1="644.17407" y1="268.72021" x2="642.68512" y2="262.90195">
			<stop offset="0" stop-color="#A1405E"/>
			<stop offset="1" stop-color="#B46270"/>
		</linearGradient>
	</defs>
	<path fill="url(#gradient_6)" d="M684.011 241.887C684.024 243.4 683.716 243.774 682.613 244.85C680.329 247.078 677.165 248.977 674.463 250.644L674.834 250.944L676.467 250.711C677.884 248.761 679.966 248.513 682.254 248.151C691.111 246.748 725.104 243.462 732.239 246.122C731.681 247.576 730.443 248.476 729.054 249.118C728.666 249.297 728.264 249.441 727.86 249.581C712.828 251.92 698.212 255.263 683.409 258.713C671.966 261.38 660.403 263.962 649.259 267.764C639.237 271.185 629.724 275.992 620.098 280.341C615.736 282.312 611.208 283.864 606.901 285.913L603.484 284.463C605.475 283.781 607.309 281.541 609.194 280.428C613.318 277.993 617.915 276.178 621.927 273.581C622.627 273.128 623.169 272.444 623.644 271.771C628.351 268.881 635.931 267.886 641.289 266.184C652.759 262.54 675.812 251.016 684.011 241.887Z"/>
	<defs>
		<linearGradient id="gradient_7" gradientUnits="userSpaceOnUse" x1="444.12967" y1="203.31927" x2="438.62329" y2="245.88466">
			<stop offset="0" stop-color="#A67E64"/>
			<stop offset="1" stop-color="#E69F80"/>
		</linearGradient>
	</defs>
	<path fill="url(#gradient_7)" d="M394.109 200.85C397.215 197.51 428.786 195.861 434.948 195.559Q435.301 195.544 435.654 195.538C438.164 199.416 440.592 203.402 443.699 206.84L447.023 211.245C451.262 221.482 471.417 240.613 480.703 248.075C483.23 250.106 486.767 251.274 489.015 253.44C488.063 253.948 486.705 253.455 485.637 253.272C478.397 250.938 469.29 248.821 461.727 248.145C444.144 244.391 426.968 242.216 408.992 241.199C402.012 240.804 394.981 241.179 388.026 240.615C401.305 238.426 414.202 239.866 427.439 241.55C413.631 229.739 402.034 217.338 394.109 200.85Z"/>
	<defs>
		<linearGradient id="gradient_8" gradientUnits="userSpaceOnUse" x1="520.47034" y1="301.01877" x2="520.79364" y2="254.25111">
			<stop offset="0" stop-color="#942725"/>
			<stop offset="1" stop-color="#EC694C"/>
		</linearGradient>
	</defs>
	<path fill="url(#gradient_8)" d="M461.727 248.145C469.29 248.821 478.397 250.938 485.637 253.272L485.208 254.341C501.045 259.067 516.523 264.216 531.647 270.928C537.203 273.394 550.83 282.018 554.521 282.873L554.857 282.508C556.881 283.75 559.075 285.776 561.225 286.608L560.949 287.288L563.228 290.211L562.624 291.489C563.205 295.935 562.909 300.637 562.882 305.123C559.349 306.221 555.802 307.468 552.164 308.163L547.977 303.643C546.155 301.835 543.893 300.374 541.828 298.853C531.409 293.701 521.305 291.698 509.872 290.226C502.701 289.48 495.408 289.617 488.204 289.524C490.512 288.941 494.097 287.903 496.442 288.203C497.064 288.283 497.52 288.264 498.139 288.189C495.876 287.738 492.547 287.847 490.837 286.164C486.255 281.652 480.728 277.587 476.892 272.416C473.238 267.491 470.417 262.014 467.665 256.555C466.703 254.646 465.895 252.158 464.69 250.461C464.016 249.512 462.71 248.757 461.727 248.145Z"/>
	<path fill="#8D302C" d="M541.828 298.853C546.786 298.511 548.047 301.87 552.333 300.969C550.894 301.883 549.463 302.807 547.977 303.643C546.155 301.835 543.893 300.374 541.828 298.853Z"/>
	<defs>
		<linearGradient id="gradient_9" gradientUnits="userSpaceOnUse" x1="552.6192" y1="299.38159" x2="561.19067" y2="304.04996">
			<stop offset="0" stop-color="#B04536"/>
			<stop offset="1" stop-color="#C55B3E"/>
		</linearGradient>
	</defs>
	<path fill="url(#gradient_9)" d="M552.333 300.969C555.269 300.418 558.643 298.359 560.734 296.286C562.279 294.755 562.397 293.552 562.624 291.489C563.205 295.935 562.909 300.637 562.882 305.123C559.349 306.221 555.802 307.468 552.164 308.163L547.977 303.643C549.463 302.807 550.894 301.883 552.333 300.969Z"/>
	<path fill="#8D302C" d="M461.727 248.145C469.29 248.821 478.397 250.938 485.637 253.272L485.208 254.341Q480.528 253.422 475.915 252.213C488.993 268.512 493.284 275.335 511.129 287.396L507.777 287.506L508.162 287.807L507.821 287.797C509.806 289.224 511.809 288.798 513.86 289.767L509.872 290.226C502.701 289.48 495.408 289.617 488.204 289.524C490.512 288.941 494.097 287.903 496.442 288.203C497.064 288.283 497.52 288.264 498.139 288.189C495.876 287.738 492.547 287.847 490.837 286.164C486.255 281.652 480.728 277.587 476.892 272.416C473.238 267.491 470.417 262.014 467.665 256.555C466.703 254.646 465.895 252.158 464.69 250.461C464.016 249.512 462.71 248.757 461.727 248.145Z"/>
	<path fill="#FEFDFD" d="M430.162 161.6C429.684 159.176 429.369 156.663 429.094 154.208C427.624 141.062 429.582 126.907 438.198 116.386C446.121 106.71 456.963 103.392 468.868 102.192C473.534 102.22 487.66 101.852 490.897 104.627C491.045 104.754 491.168 104.908 491.304 105.049C487.2 104.15 483.143 103.332 478.976 102.787C476.042 113.205 473.141 125.082 474.42 135.993C474.549 140.109 474.809 144.132 475.328 148.219C476.639 156.827 478.157 165.173 481.235 173.361C474.524 171.482 468.085 168.48 461.119 167.583C445.61 164.156 433.106 162.98 417.322 163.164C421.493 161.606 425.778 161.589 430.162 161.6Z"/>
	<path fill="#FEFDFD" d="M476.42 483.375C478.732 482.286 481.671 480.71 484.168 480.334L485.035 481.658L483.455 480.471L485.12 480.605C485.038 481.338 484.82 481.603 484.415 482.181C481.238 486.729 474.926 508.884 473.37 515.485C471.391 523.147 472.133 531.058 471.153 538.823Q471.855 546.661 474.004 554.231L464.923 554.187C462.785 553.962 460.61 553.672 458.507 553.223C448.243 551.034 439.147 545.892 433.408 536.843C425.043 523.658 426.395 508.115 429.556 493.599C419.44 493.721 411.764 492.609 402.46 488.665C405.39 487.557 416.987 493.126 421.311 493.173C423.525 493.197 426.696 492.409 428.774 491.694C430.289 492.418 430.839 492.692 432.549 492.311C432.623 492.294 432.688 492.253 432.757 492.224C446.009 490.62 458.028 488.686 470.886 485.002C472.389 484.768 473.923 484.141 475.378 483.681L476.42 483.375Z"/>
	<path fill="#CCA5DA" d="M476.42 483.375C478.732 482.286 481.671 480.71 484.168 480.334L485.035 481.658L483.455 480.471L485.12 480.605C485.038 481.338 484.82 481.603 484.415 482.181C481.238 486.729 474.926 508.884 473.37 515.485C471.391 523.147 472.133 531.058 471.153 538.823C468.465 527.781 471.224 505.027 473.528 493.595C474.205 490.239 476.264 486.712 476.42 483.375Z"/>
	<defs>
		<linearGradient id="gradient_10" gradientUnits="userSpaceOnUse" x1="661.31824" y1="260.20956" x2="648.55115" y2="210.06294">
			<stop offset="0" stop-color="#F3695E"/>
			<stop offset="1" stop-color="#B88078"/>
		</linearGradient>
	</defs>
	<path fill="url(#gradient_10)" d="M688.708 201.275C694.476 201.522 699.977 202.59 705.683 203.203C708.332 203.487 711.094 203.182 713.706 203.618C714.475 203.747 715.076 204.114 715.675 204.591C715.995 205.848 715.911 206.169 715.574 207.437C716.13 207.275 716.328 207.238 716.759 206.829C716.822 210.741 704.645 223.487 701.749 226.49C697.384 231.016 689.715 239.374 684.011 241.887C675.812 251.016 652.759 262.54 641.289 266.184C635.931 267.886 628.351 268.881 623.644 271.771C623.169 272.444 622.627 273.128 621.927 273.581C617.915 276.178 613.318 277.993 609.194 280.428C607.309 281.541 605.475 283.781 603.484 284.463C600.056 282.873 596.729 281.31 593.936 278.69C590.921 275.862 589.355 272.291 589.197 268.177C589.174 268.111 589.15 268.045 589.13 267.979C588.452 265.805 584.879 263.999 583.024 262.734L578.074 266.793C577.814 264.551 577.783 262.233 577.649 259.977C577.676 259.884 577.691 259.788 577.729 259.7C578.418 258.106 580.941 257.499 582.438 256.922C584.006 256.539 585.256 256.343 586.887 256.435L588.255 257.329C588.415 258.104 588.606 258.883 588.712 259.667L588.239 260.022C591.952 261.838 598.787 260.316 603.056 260.771C607.124 261.204 610.474 259.447 614.279 258.131C617.603 256.981 621.208 256.279 624.437 254.98C631.42 252.169 641.683 245.639 647.53 240.868Q651.571 237.539 655.329 233.894Q659.087 230.249 662.537 226.31Q665.987 222.372 669.106 218.167Q672.225 213.961 674.993 209.517C676.23 207.535 678.152 205.112 678.402 202.741C678.651 203.016 678.556 202.884 678.748 203.204C679.123 203.826 679.44 204.283 679.984 204.783C682.785 199.755 684.204 203.931 688.708 201.275Z"/>
	<path fill="#E18B98" d="M582.438 256.922C583.772 257.127 584.988 257.294 586.237 257.84L586.287 258.118C586.422 258.844 586.563 260.051 587.197 260.477C589.252 261.855 592.623 261.946 595.05 262.301C593.887 264.498 592.984 267.133 590.678 268.3L589.197 268.177C589.174 268.111 589.15 268.045 589.13 267.979C588.452 265.805 584.879 263.999 583.024 262.734L578.074 266.793C577.814 264.551 577.783 262.233 577.649 259.977C577.676 259.884 577.691 259.788 577.729 259.7C578.418 258.106 580.941 257.499 582.438 256.922Z"/>
	<defs>
		<linearGradient id="gradient_11" gradientUnits="userSpaceOnUse" x1="608.30969" y1="278.92813" x2="591.07043" y2="268.02725">
			<stop offset="0" stop-color="#C9738D"/>
			<stop offset="1" stop-color="#E0A8BF"/>
		</linearGradient>
	</defs>
	<path fill="url(#gradient_11)" d="M589.197 268.177L590.678 268.3C604.809 273.364 610.415 270.25 623.644 271.771C623.169 272.444 622.627 273.128 621.927 273.581C617.915 276.178 613.318 277.993 609.194 280.428C607.309 281.541 605.475 283.781 603.484 284.463C600.056 282.873 596.729 281.31 593.936 278.69C590.921 275.862 589.355 272.291 589.197 268.177Z"/>
	<path fill="#FEFDFD" d="M563.228 290.211C575.389 290.208 587.614 289.931 599.767 290.254L599.768 371.978C591.577 372.016 569.342 373.169 562.665 371.627L562.919 367.196L562.843 355.876C559.628 355.955 555.273 354.135 551.876 353.727C554.38 350.185 556.119 345.953 557.114 341.749C559.82 330.307 558.257 318.206 552.164 308.163C555.802 307.468 559.349 306.221 562.882 305.123C562.909 300.637 563.205 295.935 562.624 291.489L563.228 290.211Z"/>
	<path fill="#191819" d="M552.164 308.163C555.802 307.468 559.349 306.221 562.882 305.123L562.843 355.876C559.628 355.955 555.273 354.135 551.876 353.727C554.38 350.185 556.119 345.953 557.114 341.749C559.82 330.307 558.257 318.206 552.164 308.163Z"/>
	<path fill="#CCA5DA" d="M734.59 174.738C745.176 174.639 759.047 174.746 767.168 182.66C770.522 185.929 772.244 190.283 772.227 194.949C772.18 208.193 760.867 221.581 751.868 230.285C747.304 234.7 737.853 243.87 732.239 246.122C725.104 243.462 691.111 246.748 682.254 248.151C679.966 248.513 677.884 248.761 676.467 250.711L674.834 250.944L674.463 250.644C677.165 248.977 680.329 247.078 682.613 244.85C683.716 243.774 684.024 243.4 684.011 241.887C689.715 239.374 697.384 231.016 701.749 226.49C704.645 223.487 716.822 210.741 716.759 206.829C717.558 206.53 718.213 206.014 718.787 205.387C721.186 202.762 725.866 196.324 725.732 192.94C728.866 191.275 733.326 179.515 734.412 175.961C734.54 175.545 734.561 175.169 734.59 174.738Z"/>
	<path fill="#FEFDFD" d="M698.287 113.272C709.567 113.409 720.393 115.811 728.597 124.25C735.876 131.737 738.632 141.93 738.393 152.138C738.243 158.499 735.278 177.402 730.744 181.385C730.643 181.474 730.535 181.554 730.43 181.638C730.648 183.093 730.415 184.086 729.56 185.304C729.13 185.917 728.493 186.473 727.95 186.979C728.094 189.169 726.844 191.076 725.732 192.94C725.866 196.324 721.186 202.762 718.787 205.387C718.213 206.014 717.558 206.53 716.759 206.829C716.328 207.238 716.13 207.275 715.574 207.437C715.911 206.169 715.995 205.848 715.675 204.591C715.076 204.114 714.475 203.747 713.706 203.618C711.094 203.182 708.332 203.487 705.683 203.203C699.977 202.59 694.476 201.522 688.708 201.275C684.204 203.931 682.785 199.755 679.984 204.783C679.44 204.283 679.123 203.826 678.748 203.204C678.556 202.884 678.651 203.016 678.402 202.741C682.295 200.687 683.462 190.501 686.471 188.493C686.915 188.083 687.387 187.642 687.712 187.129C688.483 185.91 688.597 184.716 688.314 183.341C689.674 182.029 690.195 180.372 690.81 178.637C692.29 174.46 697.334 159.358 695.575 155.649C697.999 153.267 697.833 144.344 697.913 140.961C698.013 136.726 698.873 123.811 695.872 120.656C697.215 118.247 695.154 115.937 696.338 113.689L698.287 113.272Z"/>
	<path fill="#BC9B90" d="M686.471 188.493C686.662 189.591 686.688 189.807 687.437 190.697C691.792 190.546 697.249 188.178 701.519 186.976C710.749 184.38 720.826 181.993 730.43 181.638C730.648 183.093 730.415 184.086 729.56 185.304C729.13 185.917 728.493 186.473 727.95 186.979C714.419 189.029 699.796 192.837 688.708 201.275C684.204 203.931 682.785 199.755 679.984 204.783C679.44 204.283 679.123 203.826 678.748 203.204C678.556 202.884 678.651 203.016 678.402 202.741C682.295 200.687 683.462 190.501 686.471 188.493Z"/>
	<path fill="#BEA667" d="M727.95 186.979C728.094 189.169 726.844 191.076 725.732 192.94C725.866 196.324 721.186 202.762 718.787 205.387C718.213 206.014 717.558 206.53 716.759 206.829C716.328 207.238 716.13 207.275 715.574 207.437C715.911 206.169 715.995 205.848 715.675 204.591C715.076 204.114 714.475 203.747 713.706 203.618C711.094 203.182 708.332 203.487 705.683 203.203C699.977 202.59 694.476 201.522 688.708 201.275C699.796 192.837 714.419 189.029 727.95 186.979Z"/>
	<path fill="#722E27" d="M641.192 371.186C646.273 370.693 652.297 373.014 657.166 374.423C678.982 380.738 695.638 388.299 714.93 400.197C721.037 403.964 727.169 407.644 732.711 412.235C733.467 412.862 733.741 413.16 734.015 414.094C737.751 414.954 752.629 429.015 754.366 432.616C754.525 432.946 754.504 433.087 754.515 433.411C754.228 433.863 753.864 434.758 753.345 434.871C745.482 436.587 716.94 430.656 707.871 428.516C703.078 427.385 698.179 425.622 693.351 424.858C696.766 426.538 704.294 432.982 705.615 436.654C705.659 436.775 705.674 436.904 705.704 437.029L705.048 437.904C703.806 433.856 689.427 421.158 685.617 418.475C685.117 417.875 685.35 418.104 684.763 417.599C668.386 403.521 634.317 383.529 612.049 385.313C608.33 381.68 606.115 377.67 603.921 373.013L604.597 371.999C608.716 372.383 637.172 372.736 640.149 371.93C640.41 371.859 640.945 371.362 641.192 371.186Z"/>
	<path fill="#635A2E" d="M734.015 414.094C737.751 414.954 752.629 429.015 754.366 432.616C754.525 432.946 754.504 433.087 754.515 433.411C754.228 433.863 753.864 434.758 753.345 434.871C745.482 436.587 716.94 430.656 707.871 428.516C703.078 427.385 698.179 425.622 693.351 424.858C696.766 426.538 704.294 432.982 705.615 436.654C705.659 436.775 705.674 436.904 705.704 437.029L705.048 437.904C703.806 433.856 689.427 421.158 685.617 418.475C685.994 418.334 687.304 417.691 687.619 417.726C689.038 417.885 692.44 422.006 694.139 422.973C698.313 425.348 703.467 426.632 708.122 427.658C711.723 428.452 716.874 430.431 720.451 430.316C726.699 430.116 732.409 424.647 739.06 426.614C741.883 427.449 742.595 429.399 744.032 431.652C744.969 433.121 747.225 434.354 748.972 434.592C750.362 434.782 750.682 434.643 751.738 433.771C752.008 427.083 738.544 419.103 734.228 414.335C734.156 414.256 734.086 414.174 734.015 414.094Z"/>
	<path fill="#CCA5DA" d="M496.588 399.43L496.838 400.208C491.479 403.433 486.349 407.599 481.755 411.836C483.597 411.555 485.021 411.043 486.779 411.716C485.859 416.762 473.86 422.807 471.31 429.054C455.107 447.747 440.863 467.998 430.339 490.475L430.505 491.686C431.272 491.952 431.938 492.162 432.757 492.224C432.688 492.253 432.623 492.294 432.549 492.311C430.839 492.692 430.289 492.418 428.774 491.694C426.696 492.409 423.525 493.197 421.311 493.173C416.987 493.126 405.39 487.557 402.46 488.665C401.115 488.118 399.832 487.522 398.615 486.722C394.302 483.888 391.039 479.429 390.009 474.338C388.109 464.946 392.977 454.909 398.08 447.262C404.128 438.197 425.918 415.012 435.586 411.829C439.936 410.396 445.211 410.123 449.752 409.402Q459.291 407.883 468.743 405.892C473.966 405.062 479.184 403.614 484.339 402.415C488.443 401.662 492.538 400.45 496.588 399.43Z"/>
	<defs>
		<linearGradient id="gradient_12" gradientUnits="userSpaceOnUse" x1="599.65393" y1="55.62558" x2="606.22278" y2="149.12743">
			<stop offset="0" stop-color="#0F080E"/>
			<stop offset="1" stop-color="#401D1E"/>
		</linearGradient>
	</defs>
	<path fill="url(#gradient_12)" d="M572.338 57.873L572.18 57.0209C587.861 53.3049 601.787 55.7363 615.519 64.206C618.993 66.3483 621.967 68.8365 624.51 72.0321L624.477 72.3974C625.61 73.6982 626.163 74.6761 627.811 75.2452C635.526 82.3062 650.428 105.535 651.357 115.906C651.399 116.373 651.337 116.839 651.234 117.292C651.232 117.403 651.226 117.513 651.226 117.624C651.249 120.802 654.475 125.593 653.726 128.253C652.46 128.814 652.327 127.939 651.282 128.053C650.218 128.168 647.844 129.731 646.803 130.24C637.733 134.673 623.497 141.662 616.656 148.955C615.516 145.507 613.54 142.639 612.312 139.293C609.303 128.617 597.626 110.066 590.543 101.442C582.094 91.2584 564.347 73.2301 551.055 70.279C555.327 61.9732 565.894 62.997 572.338 57.873Z"/>
	<path fill="#4F394A" d="M572.338 57.873L572.18 57.0209C587.861 53.3049 601.787 55.7363 615.519 64.206C618.993 66.3483 621.967 68.8365 624.51 72.0321L624.477 72.3974C621.347 72.8471 615.602 75.4226 613.038 75.2484L613.274 74.2364C615.279 72.1826 618.044 70.9733 620.557 69.6445C617.229 67.0028 613.787 64.6433 610.028 62.6609C598.866 56.7744 584.603 54.0965 572.338 57.873Z"/>
	<defs>
		<linearGradient id="gradient_13" gradientUnits="userSpaceOnUse" x1="573.38336" y1="275.18768" x2="494.05417" y2="199.51285">
			<stop offset="0" stop-color="#D34038"/>
			<stop offset="1" stop-color="#FF9B7C"/>
		</linearGradient>
	</defs>
	<path fill="url(#gradient_13)" d="M461.119 167.583C468.085 168.48 474.524 171.482 481.235 173.361C481.412 173.835 481.624 174.272 481.667 174.779C483.183 175.452 485.051 176.534 486.646 176.878C491.113 178.838 512.899 190.851 515.174 191.23L517.16 193.003C528.062 199.267 536.184 206.932 546.127 214.056L546.423 214.438C551.012 220.264 557.179 224.986 562.08 230.59C564.717 233.605 566.693 237.197 568.88 240.539C571.662 244.792 573.912 248.437 575.269 253.399C575.381 253.808 575.557 254.08 575.824 254.404L576.436 254.591C577.174 256.4 577.001 258.35 577.649 259.977C577.783 262.233 577.814 264.551 578.074 266.793C577.641 270.299 576.271 274.753 573.885 277.436C570.138 276.915 566.518 278.649 562.772 278.58C559.375 279.578 553.299 278.489 550.871 279.601C552.149 280.484 553.813 281.375 554.857 282.508L554.521 282.873C550.83 282.018 537.203 273.394 531.647 270.928C516.523 264.216 501.045 259.067 485.208 254.341L485.637 253.272C486.705 253.455 488.063 253.948 489.015 253.44C486.767 251.274 483.23 250.106 480.703 248.075C471.417 240.613 451.262 221.482 447.023 211.245C449.455 212.217 456.228 222.234 458.401 224.782C461.257 223.309 464.093 221.823 466.784 220.059C480.759 210.897 467.513 209.405 469.925 199.178C469.957 199.043 470.002 198.911 470.04 198.778C467.046 189.594 467.771 178.087 464.805 170.476C464.155 168.807 462.641 168.286 461.119 167.583Z"/>
	<path fill="#D04F42" d="M461.119 167.583C468.085 168.48 474.524 171.482 481.235 173.361C481.412 173.835 481.624 174.272 481.667 174.779L476.74 173C474.412 171.825 471.954 171.201 469.452 170.519C472.138 181.92 474.571 192.561 479.224 203.4C481.938 209.725 485.361 215.604 488.217 221.797L486.991 223.582C488.267 225.585 490.561 227.27 492.152 229.115C502.302 240.885 512.572 252.338 526.068 260.42C531.439 263.637 538.008 265.562 542.993 269.257C538.675 268.89 534.381 267.096 530.396 265.464C508.285 256.408 496.058 240.228 480.249 223.438C475.448 216.513 472.851 206.657 470.04 198.778C467.046 189.594 467.771 178.087 464.805 170.476C464.155 168.807 462.641 168.286 461.119 167.583Z"/>
	<path fill="#722E27" d="M470.04 198.778C472.851 206.657 475.448 216.513 480.249 223.438C496.058 240.228 508.285 256.408 530.396 265.464C534.381 267.096 538.675 268.89 542.993 269.257C545.827 270.14 551.862 273.091 553.464 275.464C552.221 276.399 548.544 275.82 546.868 275.767C548.105 276.506 549.275 277.3 550.451 278.132C554.262 278.185 558.211 278.459 561.998 277.997L562.772 278.58C559.375 279.578 553.299 278.489 550.871 279.601C552.149 280.484 553.813 281.375 554.857 282.508L554.521 282.873C550.83 282.018 537.203 273.394 531.647 270.928C516.523 264.216 501.045 259.067 485.208 254.341L485.637 253.272C486.705 253.455 488.063 253.948 489.015 253.44C486.767 251.274 483.23 250.106 480.703 248.075C471.417 240.613 451.262 221.482 447.023 211.245C449.455 212.217 456.228 222.234 458.401 224.782C461.257 223.309 464.093 221.823 466.784 220.059C480.759 210.897 467.513 209.405 469.925 199.178C469.957 199.043 470.002 198.911 470.04 198.778Z"/>
	<path fill="#BA4139" d="M480.249 223.438C496.058 240.228 508.285 256.408 530.396 265.464C534.381 267.096 538.675 268.89 542.993 269.257C545.827 270.14 551.862 273.091 553.464 275.464C552.221 276.399 548.544 275.82 546.868 275.767C548.105 276.506 549.275 277.3 550.451 278.132C554.262 278.185 558.211 278.459 561.998 277.997L562.772 278.58C559.375 279.578 553.299 278.489 550.871 279.601C527.659 263.91 509.487 266.883 491.058 241.165C487.048 235.568 483.135 229.708 480.249 223.438Z"/>
	<defs>
		<linearGradient id="gradient_14" gradientUnits="userSpaceOnUse" x1="512.02081" y1="224.09248" x2="492.75446" y2="168.41322">
			<stop offset="0" stop-color="#EF9672"/>
			<stop offset="1" stop-color="#FFF8C5"/>
		</linearGradient>
	</defs>
	<path fill="url(#gradient_14)" d="M516.907 222.323C515.865 222.973 514.771 223.643 513.635 224.118C510.861 225.279 507.442 224.867 504.728 223.741C492.416 218.632 484.307 198.157 479.669 186.489C478.395 183.282 475.002 176.227 476.367 173.049L476.842 173.609L476.421 172.893L476.74 173L481.667 174.779C483.183 175.452 485.051 176.534 486.646 176.878C491.113 178.838 512.899 190.851 515.174 191.23L517.16 193.003C517.61 193.651 518.032 194.308 518.46 194.969C520.071 197.454 518.677 200.462 519.948 203.041C521.113 201.441 519.746 199.993 521.074 198.3C520.917 197.756 520.82 197.392 520.815 196.819C521.514 205.405 521.259 214.763 516.907 222.323Z"/>
	<path fill="#FEFDFD" d="M763.609 289.257C782.924 288.184 810.202 286.605 827.979 294.442C833.903 297.054 838.748 301.103 841.077 307.271C842.05 309.848 842.683 312.646 841.48 315.236C828.672 315.255 815.719 315.657 802.928 315.205C800.191 315.109 799.437 312.332 797.63 310.511C794.784 307.644 786.514 307.702 782.527 307.725C778.865 307.747 773.256 307.605 770.573 310.422C770.035 310.988 769.618 312.333 769.687 313.1C769.906 315.569 772.332 316.775 774.467 317.368C778.939 318.61 784.232 318.438 788.843 318.564C803.657 318.97 826.624 317.412 838.464 327.641C842.809 331.394 844.825 336.434 845.213 342.084C845.678 348.846 844.455 355.539 839.878 360.758C831.375 370.454 815.413 372.368 803.317 373.187C802.859 373.259 802.396 373.326 801.934 373.362C783.121 374.816 748.333 375.084 733.673 361.953C730.024 358.685 726.903 351.872 726.711 346.963C726.657 345.571 726.677 345.227 727.606 344.222C732.468 343.264 738.008 343.823 742.967 343.838L768.723 343.869C769.142 344.347 769.108 344.205 769.283 344.685C769.893 346.36 770.291 348.094 771.405 349.533C773.796 352.619 779.31 353.687 782.956 353.963C788.29 354.367 795.741 354.251 799.943 350.515C801.261 349.342 801.955 348.035 802.062 346.265C801.318 343.355 798.714 342.316 796.05 341.639C791.436 340.465 786.392 340.558 781.657 340.428C767.919 340.051 748.455 341 736.842 332.392C731.926 328.747 729.024 323.554 728.233 317.509C727.485 311.792 728.5 305.751 732.109 301.13C739.174 292.082 753.069 290.663 763.609 289.257Z"/>
	<defs>
		<linearGradient id="gradient_15" gradientUnits="userSpaceOnUse" x1="557.24835" y1="381.87476" x2="496.34155" y2="481.57425">
			<stop offset="0" stop-color="#C9382F"/>
			<stop offset="1" stop-color="#FE9788"/>
		</linearGradient>
	</defs>
	<path fill="url(#gradient_15)" d="M558.916 373.867C566.051 375.999 572.471 379.041 576.153 385.889C577.425 388.256 578.078 390.804 578.718 393.395L578.86 393.707C578.089 397.274 578.964 402.169 576.651 405.122C574.858 406.296 574.066 410.156 573.017 412.161C570.765 416.463 567.16 421.119 564.124 424.936C550.473 442.092 528.639 457.509 509.099 467.374C498.036 473.133 486.417 479.813 474.286 482.98L475.378 483.681C473.923 484.141 472.389 484.768 470.886 485.002C458.028 488.686 446.009 490.62 432.757 492.224C431.938 492.162 431.272 491.952 430.505 491.686L430.339 490.475C440.863 467.998 455.107 447.747 471.31 429.054C473.86 422.807 485.859 416.762 486.779 411.716C485.021 411.043 483.597 411.555 481.755 411.836C486.349 407.599 491.479 403.433 496.838 400.208L496.588 399.43C492.538 400.45 488.443 401.662 484.339 402.415C486.457 399.509 490.29 397.585 493.446 395.97L496.099 396.127C501.854 397.852 507.951 394.04 513.746 393.817C516.75 393.367 519.807 392.081 522.694 391.127Q528.666 389.01 534.579 386.734C541.093 384.25 554.433 378.887 558.916 373.867Z"/>
	<defs>
		<linearGradient id="gradient_16" gradientUnits="userSpaceOnUse" x1="557.80219" y1="389.51654" x2="558.72516" y2="375.04236">
			<stop offset="0" stop-color="#C96A81"/>
			<stop offset="1" stop-color="#DD97A5"/>
		</linearGradient>
	</defs>
	<path fill="url(#gradient_16)" d="M558.916 373.867C566.051 375.999 572.471 379.041 576.153 385.889C577.425 388.256 578.078 390.804 578.718 393.395C575.848 392.881 572.612 391.214 569.77 390.289C560.822 387.377 553.181 386.909 543.802 387.437C541.395 387.303 539.011 387.713 536.599 387.674C535.427 387.655 535.439 387.62 534.579 386.734C541.093 384.25 554.433 378.887 558.916 373.867Z"/>
	<path fill="#EA886D" d="M475.814 475.777C482.556 471.235 483.847 461.619 495.267 457.002C497.528 456.088 499.954 455.588 502.254 456.723C505.798 458.471 507.842 463.885 509.099 467.374C498.036 473.133 486.417 479.813 474.286 482.98L473.298 482.585C473.17 480.185 474.462 477.692 475.814 475.777Z"/>
	<path fill="#DB6E62" d="M467.62 481.366C467.95 477.331 469.346 472.995 470.425 469.108C471.812 464.114 473.211 458.664 475.364 453.962C480.886 441.907 491.34 430.307 500.87 421.332C501.181 426.372 499.692 430.142 496.377 433.867C494.558 435.91 492.639 437.873 490.741 439.842Q492.214 439.153 493.698 438.487C492.802 443.276 480.995 452.372 480.417 455.535C480.375 455.767 480.773 456.752 480.856 457.037C482.364 458.185 482.317 458.36 482.775 460.223C481.826 463.481 477.4 467.779 477.212 470.085L478.433 469.259L478.582 469.651C477.652 471.682 476.653 473.708 475.814 475.777C474.462 477.692 473.17 480.185 473.298 482.585L474.286 482.98L475.378 483.681C473.923 484.141 472.389 484.768 470.886 485.002Q468.948 484.816 467.006 484.672L466.652 483.929L467.62 481.366Z"/>
	<path fill="#8D302C" d="M522.694 391.127Q528.666 389.01 534.579 386.734C535.439 387.62 535.427 387.655 536.599 387.674C539.011 387.713 541.395 387.303 543.802 387.437C542.655 387.822 541.262 388.129 540.22 388.724C539.949 390.257 539.982 391.281 538.62 392.249C527.005 400.507 509.578 410.565 500.87 421.332C491.34 430.307 480.886 441.907 475.364 453.962C473.211 458.664 471.812 464.114 470.425 469.108C469.346 472.995 467.95 477.331 467.62 481.366L466.652 483.929L467.006 484.672Q468.948 484.816 470.886 485.002C458.028 488.686 446.009 490.62 432.757 492.224C431.938 492.162 431.272 491.952 430.505 491.686L430.339 490.475C440.863 467.998 455.107 447.747 471.31 429.054C473.86 422.807 485.859 416.762 486.779 411.716C485.021 411.043 483.597 411.555 481.755 411.836C486.349 407.599 491.479 403.433 496.838 400.208L496.588 399.43C492.538 400.45 488.443 401.662 484.339 402.415C486.457 399.509 490.29 397.585 493.446 395.97L496.099 396.127C501.854 397.852 507.951 394.04 513.746 393.817C516.75 393.367 519.807 392.081 522.694 391.127Z"/>
	<path fill="#AB587E" d="M522.694 391.127Q528.666 389.01 534.579 386.734C535.439 387.62 535.427 387.655 536.599 387.674C539.011 387.713 541.395 387.303 543.802 387.437C542.655 387.822 541.262 388.129 540.22 388.724C518.752 394.741 502.413 402.238 485.291 416.465C480.535 420.416 476.249 425.443 471.31 429.054C473.86 422.807 485.859 416.762 486.779 411.716C485.021 411.043 483.597 411.555 481.755 411.836C486.349 407.599 491.479 403.433 496.838 400.208L496.588 399.43C492.538 400.45 488.443 401.662 484.339 402.415C486.457 399.509 490.29 397.585 493.446 395.97L496.099 396.127C501.854 397.852 507.951 394.04 513.746 393.817C516.75 393.367 519.807 392.081 522.694 391.127Z"/>
	<path fill="#DB6E62" d="M496.099 396.127C501.854 397.852 507.951 394.04 513.746 393.817C509.108 395.595 500.379 396.882 496.588 399.43C492.538 400.45 488.443 401.662 484.339 402.415C486.457 399.509 490.29 397.585 493.446 395.97L496.099 396.127Z"/>
	<path fill="#FEFDFD" d="M604.407 290.207L645.42 290.18C645.533 290.236 645.65 290.286 645.759 290.349C648.636 292.009 684.124 326.246 686.918 329.835C687.272 330.289 687.368 330.735 687.515 331.278C687.84 330.595 688.111 329.906 688.287 329.169C689.245 325.159 689.245 292.752 687.634 290.225C700.034 290.18 712.578 289.784 724.96 290.395C725.212 290.975 725.501 291.577 725.609 292.204C726.581 297.832 725.677 312.229 725.669 318.571C725.647 335.287 726.553 352.485 725.599 369.144C725.536 370.252 725.303 371.059 724.708 372.007L687.438 372.024C687.4 371.895 687.366 371.764 687.323 371.636C686.713 369.834 644.336 329.448 640.747 327.614C642.38 330.971 641.597 365.418 641.192 371.186C640.945 371.362 640.41 371.859 640.149 371.93C637.172 372.736 608.716 372.383 604.597 371.999C603.62 363.326 604.367 353.765 604.37 344.988L604.407 290.207Z"/>
	<path fill="#8D302C" d="M651.234 117.292C652.898 119.608 655.451 126.518 655.087 129.331C655.055 129.579 654.918 129.91 654.84 130.127C664.064 130.629 679.341 118.017 695.872 120.656C698.873 123.811 698.013 136.726 697.913 140.961C697.833 144.344 697.999 153.267 695.575 155.649C697.334 159.358 692.29 174.46 690.81 178.637C690.195 180.372 689.674 182.029 688.314 183.341C688.597 184.716 688.483 185.91 687.712 187.129C687.387 187.642 686.915 188.083 686.471 188.493C683.462 190.501 682.295 200.687 678.402 202.741C678.152 205.112 676.23 207.535 674.993 209.517Q672.225 213.961 669.106 218.167Q665.987 222.372 662.537 226.31Q659.087 230.249 655.329 233.894Q651.571 237.539 647.53 240.868C641.683 245.639 631.42 252.169 624.437 254.98C621.208 256.279 617.603 256.981 614.279 258.131C610.474 259.447 607.124 261.204 603.056 260.771C598.787 260.316 591.952 261.838 588.239 260.022L588.712 259.667C588.606 258.883 588.415 258.104 588.255 257.329L586.887 256.435C585.256 256.343 584.006 256.539 582.438 256.922C580.941 257.499 578.418 258.106 577.729 259.7C577.691 259.788 577.676 259.884 577.649 259.977C577.001 258.35 577.174 256.4 576.436 254.591C577.758 252.518 588.479 250.538 590.94 250.752C592.501 250.887 592.167 251.562 593.897 250.956C592.354 249.445 593.22 249.1 592.533 247.261L590.779 247.69L590.383 246.493C591.309 244.944 592.552 244.85 594.221 244.334L594.642 246.814L595.296 246.965C609.59 241.707 610.037 239.119 615.104 225.106C615.837 223.078 616.367 220.869 617.951 219.328C618.99 216.866 619.302 213.734 620.187 211.133C620.097 206.433 621.289 201.209 621.536 196.439C622.431 179.16 620.63 161.302 613.446 145.415C612.157 146.606 612.237 146.634 612.111 148.401C609.248 150.772 597.661 162.003 594.913 162.295C594.937 162.158 594.959 162.02 594.985 161.883C595.341 160.069 597.276 155.904 598.739 154.938L598.641 154.287C601.776 149.624 607.249 141.786 612.312 139.293C613.54 142.639 615.516 145.507 616.656 148.955C623.497 141.662 637.733 134.673 646.803 130.24C647.844 129.731 650.218 128.168 651.282 128.053C652.327 127.939 652.46 128.814 653.726 128.253C654.475 125.593 651.249 120.802 651.226 117.624C651.226 117.513 651.232 117.403 651.234 117.292Z"/>
	<path fill="#BA4139" d="M617.951 219.328C615.7 229.872 610.789 241.259 602.989 248.915C600.13 251.721 596.861 253.925 593.748 256.425C594.215 256.432 594.664 256.413 595.13 256.366C601.049 255.776 618.649 247.752 622.165 243.129C624.611 239.912 628.06 237.48 630.775 234.47C636.442 228.19 640.577 220.975 644.541 213.563C645.189 216.16 642.614 219.91 641.27 222.136C636.597 229.876 630.228 237.552 623.519 243.625C616.441 253.706 600.017 257.209 588.712 259.667C588.606 258.883 588.415 258.104 588.255 257.329L586.887 256.435C585.256 256.343 584.006 256.539 582.438 256.922C580.941 257.499 578.418 258.106 577.729 259.7C577.691 259.788 577.676 259.884 577.649 259.977C577.001 258.35 577.174 256.4 576.436 254.591C577.758 252.518 588.479 250.538 590.94 250.752C592.501 250.887 592.167 251.562 593.897 250.956C592.354 249.445 593.22 249.1 592.533 247.261L590.779 247.69L590.383 246.493C591.309 244.944 592.552 244.85 594.221 244.334L594.642 246.814L595.296 246.965C609.59 241.707 610.037 239.119 615.104 225.106C615.837 223.078 616.367 220.869 617.951 219.328Z"/>
	<path fill="#DB6E62" d="M623.519 243.625C616.441 253.706 600.017 257.209 588.712 259.667C588.606 258.883 588.415 258.104 588.255 257.329L586.887 256.435C585.256 256.343 584.006 256.539 582.438 256.922C580.941 257.499 578.418 258.106 577.729 259.7C577.691 259.788 577.676 259.884 577.649 259.977C577.001 258.35 577.174 256.4 576.436 254.591C577.758 252.518 588.479 250.538 590.94 250.752C592.501 250.887 592.167 251.562 593.897 250.956C594.675 250.722 595.457 250.478 596.247 250.289C597.278 250.044 598.304 249.633 599.232 250.189C597.391 253.409 591.767 256.278 588.646 258.275C602.281 256.622 612.455 251.653 623.519 243.625Z"/>
	<path fill="#722E27" d="M651.234 117.292C652.898 119.608 655.451 126.518 655.087 129.331C655.055 129.579 654.918 129.91 654.84 130.127C657.159 135.937 657.994 155.556 657.176 161.954L656.053 163.667C657.276 158.691 655.749 139.966 653.805 135.231C648.186 136.37 621.063 148.341 618.444 152.571C617.905 153.441 618.038 155.493 618.305 156.479C619.215 159.849 620.918 162.774 621.638 166.301C623.809 176.944 624.098 200.724 620.889 210.799L620.187 211.133C620.097 206.433 621.289 201.209 621.536 196.439C622.431 179.16 620.63 161.302 613.446 145.415C612.157 146.606 612.237 146.634 612.111 148.401C609.248 150.772 597.661 162.003 594.913 162.295C594.937 162.158 594.959 162.02 594.985 161.883C595.341 160.069 597.276 155.904 598.739 154.938L598.641 154.287C601.776 149.624 607.249 141.786 612.312 139.293C613.54 142.639 615.516 145.507 616.656 148.955C623.497 141.662 637.733 134.673 646.803 130.24C647.844 129.731 650.218 128.168 651.282 128.053C652.327 127.939 652.46 128.814 653.726 128.253C654.475 125.593 651.249 120.802 651.226 117.624C651.226 117.513 651.232 117.403 651.234 117.292Z"/>
	<defs>
		<linearGradient id="gradient_17" gradientUnits="userSpaceOnUse" x1="675.09955" y1="163.17751" x2="677.67859" y2="120.20535">
			<stop offset="0" stop-color="#443A20"/>
			<stop offset="1" stop-color="#4B693D"/>
		</linearGradient>
	</defs>
	<path fill="url(#gradient_17)" d="M654.84 130.127C664.064 130.629 679.341 118.017 695.872 120.656C698.873 123.811 698.013 136.726 697.913 140.961C697.833 144.344 697.999 153.267 695.575 155.649C694.86 156.152 694.073 156.611 693.23 156.862C689.125 158.086 684.418 158.485 680.198 159.479C674.81 160.749 669.613 162.643 664.288 163.995C662.563 164.433 659.584 164.379 658.334 165.781C657.083 167.184 656.898 169.932 656.583 171.71L656.702 170.307L656.542 170.648C656.685 168.409 657.178 165.688 656.053 163.667L657.176 161.954C657.994 155.556 657.159 135.937 654.84 130.127Z"/>
	<path fill="#EA886D" d="M655.956 175.494C662.513 173.715 668.901 170.782 675.384 168.68C681.218 166.789 687.28 165.631 693.092 163.692C694.353 169.041 690.153 178.153 688.314 183.341C688.597 184.716 688.483 185.91 687.712 187.129C687.387 187.642 686.915 188.083 686.471 188.493C683.462 190.501 682.295 200.687 678.402 202.741C678.152 205.112 676.23 207.535 674.993 209.517Q672.225 213.961 669.106 218.167Q665.987 222.372 662.537 226.31Q659.087 230.249 655.329 233.894Q651.571 237.539 647.53 240.868C641.683 245.639 631.42 252.169 624.437 254.98C621.208 256.279 617.603 256.981 614.279 258.131C610.474 259.447 607.124 261.204 603.056 260.771C598.787 260.316 591.952 261.838 588.239 260.022L588.712 259.667C600.017 257.209 616.441 253.706 623.519 243.625C630.228 237.552 636.597 229.876 641.27 222.136C642.614 219.91 645.189 216.16 644.541 213.563C646.955 212.151 648.55 206.613 649.482 204.04C651.17 199.382 657.856 179.559 655.956 175.494Z"/>
	<path fill="#BA4139" d="M509.099 467.374C528.639 457.509 550.473 442.092 564.124 424.936C567.16 421.119 570.765 416.463 573.017 412.161C574.066 410.156 574.858 406.296 576.651 405.122C577.048 406.232 577.01 406.686 578.141 407.191C579.109 407.624 580.314 407.715 581.358 407.866C579.893 408.329 578.577 408.667 577.031 408.791L576.204 409.592L576.315 410.833C577.096 411.236 577.642 411.471 578.523 411.495C582.415 411.6 589.818 417.203 592.561 416.09L592.005 414.306C592.687 415.031 593.368 415.709 594.122 416.359C594.856 414.988 593.422 412.929 594.76 412.098C598.676 419.818 597.423 437.961 594.794 446.087C592.42 453.429 589.492 461.093 586.12 468.033C580.985 477.978 575.074 487.127 568.658 496.284L554.326 512.73C552.694 514.57 551.091 516.451 549.333 518.172C548.312 519.065 547.245 520.224 546.032 520.82C525.902 538.077 495.419 556.802 467.68 554.585C466.744 554.511 465.837 554.405 464.923 554.187L474.004 554.231Q471.855 546.661 471.153 538.823C472.133 531.058 471.391 523.147 473.37 515.485C474.926 508.884 481.238 486.729 484.415 482.181C484.82 481.603 485.038 481.338 485.12 480.605L483.455 480.471L485.035 481.658L484.168 480.334C481.671 480.71 478.732 482.286 476.42 483.375L475.378 483.681L474.286 482.98C486.417 479.813 498.036 473.133 509.099 467.374Z"/>
	<path fill="#8D302C" d="M545.985 504.965C545.336 502.975 540.067 488.607 540.281 487.94C540.377 487.641 540.619 487.404 540.726 487.109C540.869 486.712 540.84 486.078 540.86 485.65L541.438 484.859C544.13 491.338 547.657 508.016 553.311 512.031C553.418 512.107 553.522 512.187 553.628 512.263C553.855 512.428 554.09 512.58 554.326 512.73C552.694 514.57 551.091 516.451 549.333 518.172C549.699 513.965 545.846 511.549 545.985 504.965Z"/>
	<path fill="#722E27" d="M512.299 520.316C511.53 516.764 510.718 511.754 511.877 508.231L512.476 509.046L512.31 509.606L511.376 509.068L512.805 509.655C514.352 513.262 513.21 515.039 512.374 518.63L512.834 519.129C517.517 516.582 516.231 507.762 521.114 504.34C525.192 501.482 532.784 500.863 537.563 501.63C540.26 502.063 544.293 502.687 545.985 504.965C545.846 511.549 549.699 513.965 549.333 518.172C548.312 519.065 547.245 520.224 546.032 520.82C543.982 520.98 522.393 537.288 515.989 539.819C514.904 533.306 513.45 526.825 512.299 520.316Z"/>
	<defs>
		<linearGradient id="gradient_18" gradientUnits="userSpaceOnUse" x1="493.54028" y1="527.68463" x2="493.1069" y2="552.7265">
			<stop offset="0" stop-color="#A57F58"/>
			<stop offset="1" stop-color="#8CA76B"/>
		</linearGradient>
	</defs>
	<path fill="url(#gradient_18)" d="M471.153 538.823C472.133 531.058 471.391 523.147 473.37 515.485C473.535 516.553 473.485 518.303 474.467 518.874C477.528 520.653 492.506 519.309 493.092 520.428L491.513 520.233L491.243 520.86C491.16 520.849 491.076 520.836 490.992 520.826C485.513 520.146 479.411 520.741 473.859 520.737C473.527 522.781 472.463 526.211 473.443 528.013C477.825 527.947 511.62 528.525 512.605 527.811C512.605 526.465 512.434 525.709 511.854 524.499C511.397 523.546 511.237 522.48 511.072 521.443C509.326 520.075 506.619 521.481 505.255 520.149C506.134 519.34 506.45 519.407 507.623 519.447C509.18 519.501 510.784 519.963 512.299 520.316C513.45 526.825 514.904 533.306 515.989 539.819C522.393 537.288 543.982 520.98 546.032 520.82C525.902 538.077 495.419 556.802 467.68 554.585C466.744 554.511 465.837 554.405 464.923 554.187L474.004 554.231Q471.855 546.661 471.153 538.823Z"/>
	<path fill="#FEFDFD" d="M488.204 289.524C495.408 289.617 502.701 289.48 509.872 290.226C521.305 291.698 531.409 293.701 541.828 298.853C543.893 300.374 546.155 301.835 547.977 303.643L552.164 308.163C558.257 318.206 559.82 330.307 557.114 341.749C556.119 345.953 554.38 350.185 551.876 353.727C555.273 354.135 559.628 355.955 562.843 355.876L562.919 367.196L562.665 371.627C561.09 371.943 560.235 372.286 559.048 373.381L558.916 373.867C554.433 378.887 541.093 384.25 534.579 386.734Q528.666 389.01 522.694 391.127C519.807 392.081 516.75 393.367 513.746 393.817C507.951 394.04 501.854 397.852 496.099 396.127L493.446 395.97C490.29 397.585 486.457 399.509 484.339 402.415C479.184 403.614 473.966 405.062 468.743 405.892C474.048 403.885 478.866 394.969 482.639 390.61C486.601 382.725 493.987 378.878 499.039 372.079Q478.173 371.774 457.306 371.939C450.137 371.947 442.762 372.336 435.632 371.669L435.619 289.623L488.204 289.524Z"/>
	<path fill="#191819" d="M472.849 313.317C485.044 313.254 506.33 310.799 515.734 319.943C518.437 322.571 519.515 325.833 519.541 329.546C519.581 335.259 518.531 338.429 514.548 342.531C504.414 350.146 485.007 347.903 472.797 347.871L472.849 313.317Z"/>
	<defs>
		<linearGradient id="gradient_19" gradientUnits="userSpaceOnUse" x1="528.1048" y1="364.82156" x2="532.71954" y2="386.71548">
			<stop offset="0" stop-color="#882321"/>
			<stop offset="1" stop-color="#CC4E3E"/>
		</linearGradient>
	</defs>
	<path fill="url(#gradient_19)" d="M551.876 353.727C555.273 354.135 559.628 355.955 562.843 355.876L562.919 367.196L562.665 371.627C561.09 371.943 560.235 372.286 559.048 373.381L558.916 373.867C554.433 378.887 541.093 384.25 534.579 386.734Q528.666 389.01 522.694 391.127C519.807 392.081 516.75 393.367 513.746 393.817C507.951 394.04 501.854 397.852 496.099 396.127L493.446 395.97C490.29 397.585 486.457 399.509 484.339 402.415C479.184 403.614 473.966 405.062 468.743 405.892C474.048 403.885 478.866 394.969 482.639 390.61C486.601 382.725 493.987 378.878 499.039 372.079Q478.173 371.774 457.306 371.939C450.137 371.947 442.762 372.336 435.632 371.669C441.138 371.038 447.019 371.426 452.57 371.434L485.96 371.492C506.474 371.52 528.202 372.524 545.677 359.962L550.477 355.441L551.876 353.727Z"/>
	<path fill="#722E27" d="M550.477 355.441C552.299 357.978 556.821 359.461 556.962 362.614C553.294 362.542 548.783 361.983 545.677 359.962L550.477 355.441Z"/>
	<path fill="#D04F42" d="M496.099 396.127C500.343 392.61 508.58 390.742 514.06 389.681C517.874 388.942 519.49 388.99 522.694 391.127C519.807 392.081 516.75 393.367 513.746 393.817C507.951 394.04 501.854 397.852 496.099 396.127Z"/>
	<path fill="#8D302C" d="M551.876 353.727C555.273 354.135 559.628 355.955 562.843 355.876L562.919 367.196C561.694 365.296 556.675 365.479 554.383 364.483L554.229 363.717L556.962 362.614C556.821 359.461 552.299 357.978 550.477 355.441L551.876 353.727Z"/>
	<path fill="#BA4139" d="M482.639 390.61C482.777 390.592 482.914 390.576 483.051 390.556C488.302 389.812 498.832 385.449 503.4 386.929L503.543 387.694C501.047 391.214 496.482 392.94 493.446 395.97C490.29 397.585 486.457 399.509 484.339 402.415C479.184 403.614 473.966 405.062 468.743 405.892C474.048 403.885 478.866 394.969 482.639 390.61Z"/>
	<path fill="#FEFDFD" d="M1045.12 290.194L1084.82 290.208C1084.81 290.5 1084.81 290.794 1084.73 291.078C1084.02 293.489 1042.84 340.888 1040.06 342.675C1040.22 342.998 1040.39 343.344 1040.48 343.693C1041.49 347.276 1041.38 369.2 1039.79 371.988L1002.64 372.039C1002.69 371.948 1002.73 371.857 1002.78 371.767C1003.02 371.287 1003.28 370.785 1003.4 370.256C1004.21 366.607 1004.56 354.67 1002.59 351.512C1002.67 351.373 1002.77 351.237 1002.85 351.095C1004.24 348.629 1003.66 344.745 1002.89 342.164C1002.87 342.021 1002.85 341.874 1002.81 341.735C1002.21 339.631 963.461 296.23 960.95 294.72C960.196 296.736 923.086 325.154 918.997 327.204C919.146 327.278 919.298 327.349 919.446 327.427C923.176 329.368 961.501 364.886 966.401 370.064C966.993 370.689 967.295 371.236 967.541 372.065C951.597 371.585 935.515 372.029 919.556 372.047C919.537 371.955 919.53 371.86 919.498 371.771C918.958 370.244 886.358 339.296 883.184 337.701C883.307 338.109 883.375 338.295 883.455 338.691C884.34 343.094 884.53 369.074 882.714 371.983L845.821 372.054C846.412 371.168 846.626 370.337 846.69 369.291C847.64 353.8 846.765 337.711 846.759 322.16C846.756 312.992 847.807 299.132 846.45 290.378C858.499 289.495 870.998 290.189 883.092 290.218C883.356 290.648 883.537 290.932 883.644 291.431C884.404 294.973 884.476 317.983 882.808 320.484C886.712 318.867 919.165 293.647 921.836 290.229C948.033 289.89 974.283 290.194 1000.48 290.19C1003.18 291.763 1021.7 313.401 1022.89 316.256C1023.4 315.966 1023.84 315.612 1024.28 315.224C1027.19 312.663 1044.97 292.47 1045.12 290.194Z"/>
	<path fill="#D04F42" d="M551.055 70.279C564.347 73.2301 582.094 91.2584 590.543 101.442C597.626 110.066 609.303 128.617 612.312 139.293C607.249 141.786 601.776 149.624 598.641 154.287L598.739 154.938C597.276 155.904 595.341 160.069 594.985 161.883C594.959 162.02 594.937 162.158 594.913 162.295C597.661 162.003 609.248 150.772 612.111 148.401C612.237 146.634 612.157 146.606 613.446 145.415C620.63 161.302 622.431 179.16 621.536 196.439C621.289 201.209 620.097 206.433 620.187 211.133C619.302 213.734 618.99 216.866 617.951 219.328C616.367 220.869 615.837 223.078 615.104 225.106C610.037 239.119 609.59 241.707 595.296 246.965L594.642 246.814L594.221 244.334C592.552 244.85 591.309 244.944 590.383 246.493L590.779 247.69L592.533 247.261C593.22 249.1 592.354 249.445 593.897 250.956C592.167 251.562 592.501 250.887 590.94 250.752C588.479 250.538 577.758 252.518 576.436 254.591L575.824 254.404C575.557 254.08 575.381 253.808 575.269 253.399C573.912 248.437 571.662 244.792 568.88 240.539C566.693 237.197 564.717 233.605 562.08 230.59C557.179 224.986 551.012 220.264 546.423 214.438L546.127 214.056C536.184 206.932 528.062 199.267 517.16 193.003L515.174 191.23C512.899 190.851 491.113 178.838 486.646 176.878C485.051 176.534 483.183 175.452 481.667 174.779C481.624 174.272 481.412 173.835 481.235 173.361C478.157 165.173 476.639 156.827 475.328 148.219C474.809 144.132 474.549 140.109 474.42 135.993C473.141 125.082 476.042 113.205 478.976 102.787C483.143 103.332 487.2 104.15 491.304 105.049C497.713 108.583 507.86 109.323 513.489 113.132L520.168 116.186C524.077 102.999 531.65 89.7607 541.119 79.7772C544.181 76.5494 547.854 73.8921 550.8 70.5724C550.886 70.4755 550.97 70.3768 551.055 70.279Z"/>
	<path fill="#DB6E62" d="M515.174 191.23C515.058 191.06 514.947 190.886 514.827 190.719C513.659 189.092 511.363 188.592 510.297 186.912L511.414 187.88L511.98 186.511L511.709 187.484C514.99 189.339 525.354 196.316 528.375 196.924L530.944 195.922C532.292 197.552 531.618 199.838 533.008 201.288C534.729 203.083 537.389 204.533 539.39 206.042C543.798 209.366 555.452 218.383 557.106 223.005C553.969 221.554 549.173 214.008 546.127 214.056C536.184 206.932 528.062 199.267 517.16 193.003L515.174 191.23Z"/>
	<path fill="#DB6E62" d="M476.18 147.677C477.703 151.489 476.583 156.241 479.721 159.354L480.261 159.3C480.087 157.847 479.64 156.006 479.964 154.58C482.692 159.287 483.165 164.527 485.488 169.28C486.5 171.35 489.543 174.227 489.415 176.335C488.485 176.59 487.602 176.757 486.646 176.878C485.051 176.534 483.183 175.452 481.667 174.779C481.624 174.272 481.412 173.835 481.235 173.361C478.157 165.173 476.639 156.827 475.328 148.219L476.18 147.677Z"/>
	<path fill="#4D211A" d="M590.543 101.442C597.626 110.066 609.303 128.617 612.312 139.293C607.249 141.786 601.776 149.624 598.641 154.287C598.537 154.32 598.429 154.342 598.33 154.387C596.363 155.262 592.562 159.399 591.675 161.385C591.626 161.494 591.58 161.606 591.531 161.716C589.695 165.868 589.874 170.4 588.188 174.571Q587.001 174.499 585.815 174.4C584.986 175.653 585.129 176.727 585.051 178.186L583.806 177.702C582.414 182.717 589.179 192.357 590.901 197.579C593.646 205.902 596.655 216.077 596.012 224.876C592.887 203.183 585.002 184.036 572.659 165.948C569.291 161.013 565.48 155.529 560.98 151.564C557.533 147.156 553.154 143.175 549.262 139.141L550.077 138.807C552.718 140.776 554.976 143.341 557.283 145.686C559.323 143.385 560.331 136.377 562.068 133.053C565.395 126.688 585.018 104.939 590.543 101.442Z"/>
	<path fill="#635A2E" d="M551.055 70.279C564.347 73.2301 582.094 91.2584 590.543 101.442C585.018 104.939 565.395 126.688 562.068 133.053C560.331 136.377 559.323 143.385 557.283 145.686C554.976 143.341 552.718 140.776 550.077 138.807L549.262 139.141C541.785 133.272 535.108 126.816 526.894 121.905C526.375 121.304 525.287 120.777 524.598 120.34C522.091 118.609 519.608 117.104 516.924 115.664C515.829 114.761 514.641 113.959 513.489 113.132L520.168 116.186C524.077 102.999 531.65 89.7607 541.119 79.7772C544.181 76.5494 547.854 73.8921 550.8 70.5724C550.886 70.4755 550.97 70.3768 551.055 70.279Z"/>
	<path fill="#EA886D" d="M478.976 102.787C483.143 103.332 487.2 104.15 491.304 105.049C497.713 108.583 507.86 109.323 513.489 113.132C514.641 113.959 515.829 114.761 516.924 115.664C519.608 117.104 522.091 118.609 524.598 120.34C525.287 120.777 526.375 121.304 526.894 121.905C535.108 126.816 541.785 133.272 549.262 139.141C553.154 143.175 557.533 147.156 560.98 151.564C560.478 151.874 560.272 151.806 559.697 151.827C558.352 149.968 556.703 148.566 554.983 147.077C552.329 151.864 548.825 154.884 546.42 160.214C544.869 163.651 543.381 167.159 542.178 170.735C540.395 176.041 538.951 187.474 534.642 191.096C533.582 191.986 532.499 192.333 531.128 192.085C523.275 190.669 514.27 164.476 509.93 157.648C509.704 158.558 509.401 159.458 509.128 160.355L508.401 160.61C506.334 158.601 506.891 150.124 506.52 147.064C506.021 146.554 505.503 146.056 504.924 145.635C498.477 140.952 488.352 143.232 481.117 144.405C478.395 144.847 477.73 145.524 476.18 147.677L475.328 148.219C474.809 144.132 474.549 140.109 474.42 135.993C473.141 125.082 476.042 113.205 478.976 102.787Z"/>
	<path fill="#BEA667" d="M478.976 102.787C483.143 103.332 487.2 104.15 491.304 105.049C497.713 108.583 507.86 109.323 513.489 113.132C514.641 113.959 515.829 114.761 516.924 115.664C519.608 117.104 522.091 118.609 524.598 120.34C525.287 120.777 526.375 121.304 526.894 121.905C526.931 121.994 526.964 122.086 527.006 122.173C528.64 125.61 534.208 126.408 535.816 129.725C534.309 130.29 532.96 130.743 531.689 131.754C529.542 133.462 524.344 132.834 521.518 133.333C518.266 133.907 515.685 136.922 512.359 137.559C500.245 139.877 487.406 138.646 475.181 139.116L474.42 135.993C473.141 125.082 476.042 113.205 478.976 102.787Z"/>
	<path fill="#C5A47D" d="M524.598 120.34C524.008 120.289 522.445 120.035 522.006 120.513C519.099 123.677 518.437 131.421 514.444 133.153L513.463 132.59C512.086 130.373 512.599 127.405 513.135 124.982C513.61 122.831 515.082 116.814 516.924 115.664C519.608 117.104 522.091 118.609 524.598 120.34Z"/>
	<path fill="#EA886D" d="M612.049 385.313C634.317 383.529 668.386 403.521 684.763 417.599C685.35 418.104 685.117 417.875 685.617 418.475C689.427 421.158 703.806 433.856 705.048 437.904C707.61 440.466 712.187 445.151 713.435 448.49C715.035 449.819 715.953 451.208 717.008 452.982C722.582 459.981 729.288 472.327 731.404 481.03L731.113 482.329C732.123 483.389 733.172 484.391 733.089 485.986C733.063 486.485 732.916 486.972 732.759 487.442C736.077 490.488 736.699 501.423 736.9 505.929C737.387 516.867 734.84 527.954 727.315 536.259C719.948 544.389 709.341 548.095 698.6 548.519C696.652 548.596 694.693 548.556 692.743 548.51L692.03 549.002C690.911 547.236 685.113 547.475 682.733 547.077C671.849 545.256 662.035 540.932 652.881 534.842C652.98 535.211 653.069 535.449 653.093 535.818C653.195 537.429 652.144 539.152 651.108 540.278C651.43 541.742 651.27 543.27 650.489 544.579C650.122 545.194 649.668 545.728 649.187 546.253C648.821 546.47 647.923 547.959 647.588 548.382C647.392 548.39 647.197 548.405 647.001 548.407C645.056 548.422 642.412 546.974 640.595 546.189C630.102 541.655 619.718 535.495 611.892 527.007C610.877 525.906 609.997 525.187 610.061 523.649C610.966 521.667 611.695 519.725 612.332 517.642C615.827 511.634 617.541 503.46 619.472 496.768L619.074 497.044C617.077 498.445 615.17 502.405 612.553 502.181C611.003 502.049 608.985 501.162 607.637 500.399L606.949 498.564C602.009 494.653 589.108 480.461 586.724 474.826C585.762 472.55 587.337 470.858 586.12 468.033C589.492 461.093 592.42 453.429 594.794 446.087C597.423 437.961 598.676 419.818 594.76 412.098C593.422 412.929 594.856 414.988 594.122 416.359C593.368 415.709 592.687 415.031 592.005 414.306L592.561 416.09C589.818 417.203 582.415 411.6 578.523 411.495C577.642 411.471 577.096 411.236 576.315 410.833L576.204 409.592L577.031 408.791C578.577 408.667 579.893 408.329 581.358 407.866C580.314 407.715 579.109 407.624 578.141 407.191C577.01 406.686 577.048 406.232 576.651 405.122C578.964 402.169 578.089 397.274 578.86 393.707C580.217 394.709 581.579 395.844 582.999 396.744C583.68 397.62 583.847 397.969 584.899 398.387C587.447 397.646 590.086 396.679 592.756 396.627C593.768 396.478 594.228 396.35 595.057 395.751C596.214 393.586 595.986 391.563 595.869 389.179C596.073 388.856 596.199 388.467 596.481 388.21C597.191 387.562 609.965 385.794 612.049 385.313Z"/>
	<path fill="#AA7F49" d="M650.782 463.342C653.171 466.693 657.057 483.819 656.235 487.629C656.134 488.095 655.991 488.535 655.812 488.975C656.544 490.607 657.231 491.704 656.547 493.535C656.493 493.681 656.433 493.825 656.376 493.97C656.962 494.932 657.501 495.88 657.985 496.897C661.763 499.21 674.104 502.089 676.092 504.12C670.505 504.643 666.815 502.494 662.075 499.977C660.642 500.171 660.471 501.055 659.62 502.099C658.868 503.022 658.487 503.734 657.278 503.857C657.142 503.109 657.064 502.376 656.994 501.619L655.545 500.462C656.281 497.579 655.893 494.007 654.807 491.247C657.014 486.534 651.922 469.034 650.782 463.342Z"/>
	<path fill="#E9A078" d="M655.812 488.975C664.716 489.7 687.62 500.802 693.48 499.713L694.39 501.057L693.874 503.049C695.064 504.53 695.419 505.841 695.24 507.813C695.195 508.304 695.026 508.601 694.805 509.032C691.565 509.823 679.778 505.165 676.092 504.12C674.104 502.089 661.763 499.21 657.985 496.897C657.501 495.88 656.962 494.932 656.376 493.97C656.433 493.825 656.493 493.681 656.547 493.535C657.231 491.704 656.544 490.607 655.812 488.975Z"/>
	<path fill="#C5A47D" d="M656.376 493.97C663.969 498.07 684.413 506.398 693.147 503.484C693.549 503.35 693.59 503.282 693.874 503.049C695.064 504.53 695.419 505.841 695.24 507.813C695.195 508.304 695.026 508.601 694.805 509.032C691.565 509.823 679.778 505.165 676.092 504.12C674.104 502.089 661.763 499.21 657.985 496.897C657.501 495.88 656.962 494.932 656.376 493.97Z"/>
	<path fill="#F6C79D" d="M678.704 457.922C677.49 452.986 669.693 445.239 669.551 441.289C678.351 449.941 693.489 484.618 693.563 497.252C693.566 497.687 693.537 498.011 693.446 498.436L693.174 498.641L691.645 498.393Q692.101 497.836 692.543 497.268C692.622 496.052 692.59 494.933 692.379 493.735C692.193 492.679 691.703 490.041 690.928 489.286C689.814 488.2 683.509 486.009 681.305 484.476C676.438 481.088 669.731 475.36 668.899 469.174C668.054 462.89 675.654 462.056 678.429 458.322C678.525 458.192 678.612 458.056 678.704 457.922Z"/>
	<path fill="#E9A078" d="M654.807 491.247C655.893 494.007 656.281 497.579 655.545 500.462C656.975 506.728 654.499 533.169 650.968 538.478C650.833 538.681 650.582 538.916 650.423 539.08C648.963 538.377 647.571 537.602 646.27 536.632C643.63 534.665 627.644 521.09 627.356 519.128C629.35 520.057 630.376 522.349 632.446 523.361C630.163 514.334 631.729 512.563 635.592 504.445C640.221 503.511 651.982 502.529 654.65 499.71C655.866 497.466 655.059 493.74 654.807 491.247Z"/>
	<defs>
		<linearGradient id="gradient_20" gradientUnits="userSpaceOnUse" x1="708.62659" y1="460.96097" x2="705.85406" y2="475.38837">
			<stop offset="0" stop-color="#BBB569"/>
			<stop offset="1" stop-color="#E2EB9C"/>
		</linearGradient>
	</defs>
	<path fill="url(#gradient_20)" d="M678.179 453.565C680.161 453.939 679.511 454.362 680.894 455.175C682.354 456.034 708.922 460.042 711.175 459.559L712.102 460.791L711.568 461.435C707.059 461.212 698.916 459.947 694.941 461.816C695.507 462.587 696.084 463.332 696.697 464.066C694.004 464.663 689.512 462.267 686.996 461.106L686.836 460.687L687.756 460.301C687.257 458.939 686.209 457.853 684.857 457.229C684.441 457.038 683.994 456.895 683.557 456.758L682.73 457.209C682.653 458.749 683.839 462.484 684.945 463.637C685.527 464.244 685.945 464.202 686.713 464.242L685.852 463.461C686.44 462.977 686.465 462.703 687.262 462.794C688.793 462.969 690.286 463.962 691.774 464.404C695.948 465.644 700.436 464.819 704.536 463.714C709.026 462.504 718.736 465.34 721.765 463.814L722.231 462.144L722.201 462.565C722.078 462.431 721.96 462.291 721.83 462.162C720.583 460.923 717.082 460.552 715.349 460.38L714.614 459.594C716.091 458.575 718.429 460.204 719.058 458.556C718.322 456.787 717.041 454.89 717.008 452.982C722.582 459.981 729.288 472.327 731.404 481.03L731.113 482.329C732.123 483.389 733.172 484.391 733.089 485.986C733.063 486.485 732.916 486.972 732.759 487.442C725.196 487.14 716.636 486.518 709.261 484.854C704.386 483.755 699.334 481.77 694.395 481.204C692.925 481.035 691.802 481.304 690.438 481.861C690.778 479.203 689.048 475.787 687.626 473.601C687.639 473.356 687.674 472.964 687.644 472.701C687.254 469.309 680.634 455.355 678.179 453.565Z"/>
	<path fill="#FAF4CE" d="M687.626 473.601C688.97 472.999 690.015 472.628 691.513 472.865C695.066 473.428 699.227 475.547 702.671 476.756C707.938 478.606 713.567 480.278 718.973 481.639C721.98 482.396 729.085 481.286 730.851 482.149C730.946 482.195 731.025 482.269 731.113 482.329C732.123 483.389 733.172 484.391 733.089 485.986C733.063 486.485 732.916 486.972 732.759 487.442C725.196 487.14 716.636 486.518 709.261 484.854C704.386 483.755 699.334 481.77 694.395 481.204C692.925 481.035 691.802 481.304 690.438 481.861C690.778 479.203 689.048 475.787 687.626 473.601Z"/>
	<defs>
		<linearGradient id="gradient_21" gradientUnits="userSpaceOnUse" x1="674.17303" y1="499.24695" x2="675.52228" y2="546.22925">
			<stop offset="0" stop-color="#9E8748"/>
			<stop offset="1" stop-color="#83C565"/>
		</linearGradient>
	</defs>
	<path fill="url(#gradient_21)" d="M669.551 441.289C669.53 441.199 669.513 441.11 669.489 441.021C668.741 438.286 665.117 434.64 663.323 432.418L663.719 431.736C666.548 433.583 677.357 449.276 678.125 452.521C678.211 452.885 678.199 453.195 678.179 453.565C680.634 455.355 687.254 469.309 687.644 472.701C687.674 472.964 687.639 473.356 687.626 473.601C689.048 475.787 690.778 479.203 690.438 481.861C692.075 484.648 692.718 488.073 693.479 491.187C697.563 507.893 698.565 527.25 694.195 544.002C693.805 545.497 693.369 547.094 692.743 548.51L692.03 549.002C690.911 547.236 685.113 547.475 682.733 547.077C671.849 545.256 662.035 540.932 652.881 534.842C652.98 535.211 653.069 535.449 653.093 535.818C653.195 537.429 652.144 539.152 651.108 540.278L650.423 539.08C650.582 538.916 650.833 538.681 650.968 538.478C654.499 533.169 656.975 506.728 655.545 500.462L656.994 501.619C657.064 502.376 657.142 503.109 657.278 503.857C658.487 503.734 658.868 503.022 659.62 502.099C660.471 501.055 660.642 500.171 662.075 499.977C666.815 502.494 670.505 504.643 676.092 504.12C679.778 505.165 691.565 509.823 694.805 509.032C695.026 508.601 695.195 508.304 695.24 507.813C695.419 505.841 695.064 504.53 693.874 503.049L694.39 501.057L693.48 499.713L693.446 498.436C693.537 498.011 693.566 497.687 693.563 497.252C693.489 484.618 678.351 449.941 669.551 441.289Z"/>
	<path fill="#FEFDFD" d="M690.438 481.861C691.802 481.304 692.925 481.035 694.395 481.204C699.334 481.77 704.386 483.755 709.261 484.854C716.636 486.518 725.196 487.14 732.759 487.442C736.077 490.488 736.699 501.423 736.9 505.929C737.387 516.867 734.84 527.954 727.315 536.259C719.948 544.389 709.341 548.095 698.6 548.519C696.652 548.596 694.693 548.556 692.743 548.51C693.369 547.094 693.805 545.497 694.195 544.002C698.565 527.25 697.563 507.893 693.479 491.187C692.718 488.073 692.075 484.648 690.438 481.861Z"/>
	<defs>
		<linearGradient id="gradient_22" gradientUnits="userSpaceOnUse" x1="581.26367" y1="463.83926" x2="621.57037" y2="444.32367">
			<stop offset="0" stop-color="#A3302C"/>
			<stop offset="1" stop-color="#E54F43"/>
		</linearGradient>
	</defs>
	<path fill="url(#gradient_22)" d="M578.86 393.707C580.217 394.709 581.579 395.844 582.999 396.744C583.68 397.62 583.847 397.969 584.899 398.387L586.769 400.327C587.755 401.9 589 404.599 590.382 405.741C590.682 405.391 591.024 404.77 591.488 404.73C595.504 404.385 602.099 409.984 605.054 412.595C617.789 423.845 621.916 444.374 622.877 460.718C623.611 473.211 621.128 484.524 619.472 496.768L619.074 497.044C617.077 498.445 615.17 502.405 612.553 502.181C611.003 502.049 608.985 501.162 607.637 500.399L606.949 498.564C602.009 494.653 589.108 480.461 586.724 474.826C585.762 472.55 587.337 470.858 586.12 468.033C589.492 461.093 592.42 453.429 594.794 446.087C597.423 437.961 598.676 419.818 594.76 412.098C593.422 412.929 594.856 414.988 594.122 416.359C593.368 415.709 592.687 415.031 592.005 414.306L592.561 416.09C589.818 417.203 582.415 411.6 578.523 411.495C577.642 411.471 577.096 411.236 576.315 410.833L576.204 409.592L577.031 408.791C578.577 408.667 579.893 408.329 581.358 407.866C580.314 407.715 579.109 407.624 578.141 407.191C577.01 406.686 577.048 406.232 576.651 405.122C578.964 402.169 578.089 397.274 578.86 393.707Z"/>
	<path fill="#E18B98" d="M578.86 393.707C580.217 394.709 581.579 395.844 582.999 396.744C583.68 397.62 583.847 397.969 584.899 398.387L586.769 400.327C587.755 401.9 589 404.599 590.382 405.741C591.062 407.17 591.918 408.094 591.418 409.644C589.033 410.559 583.997 408.37 581.358 407.866C580.314 407.715 579.109 407.624 578.141 407.191C577.01 406.686 577.048 406.232 576.651 405.122C578.964 402.169 578.089 397.274 578.86 393.707Z"/>
	<path fill="#FEFDFD" d="M226.743 289.539L278.037 289.556C288.94 309.953 299.053 330.78 309.846 351.239L309.868 289.565L351.538 289.606C364.297 302.057 376.877 316.038 390.779 327.137L394.009 326.49C394.306 314.206 394.033 301.856 394.025 289.565L431.103 289.608L431.07 371.504C418.565 371.716 406.031 371.548 393.522 371.552Q370.28 349.079 346.78 326.876L346.736 371.557L278.946 371.553L273.661 360.139L230.02 360.141C228.533 364.007 226.643 367.801 224.953 371.588C201.695 371.253 178.392 371.554 155.129 371.55C142.601 360.463 130.681 348.504 118.55 336.972C118.237 348.466 118.5 360.024 118.514 371.525C106.178 371.678 93.8245 371.525 81.487 371.508L81.515 289.58L118.491 289.584L118.478 320.049C131.792 310.563 144.225 299.471 157.276 289.577L202.741 289.587L154.513 326.517C166.34 338.611 179.751 350.143 192.444 361.338C203.242 337.156 216.41 313.91 226.743 289.539Z"/>
	<path fill="#191819" d="M251.39 312.759C256.369 319.638 259.694 329.825 263.126 337.631L253.454 337.581L240.225 337.596Q245.923 325.229 251.39 312.759Z"/>
</svg>
