<?xml version="1.0" encoding="utf-8"?>
<!-- Generator: Adobe Illustrator 24.1.2, SVG Export Plug-In . SVG Version: 6.00 Build 0)  -->
<svg version="1.1" id="Слой_1" fill="currentColor" xmlns="http://www.w3.org/2000/svg" xmlns:xlink="http://www.w3.org/1999/xlink" x="0px" y="0px"
	 viewBox="0 0 270.2 209.8" style="enable-background:new 0 0 270.2 209.8;" xml:space="preserve">
<g>
	<path d="M8.9,192.9c0.3,0,0.5-0.1,0.8-0.1c2.8-0.2,8.6-0.3,10.7,1.8c0.8,0.7,0.7,1.2,0.7,2.1c-1.5,3.5-6.1,4.4-8.9,6.6
		c-0.9,0.7-0.8,0.7-1,1.8c5.5,3.8,36.2-2.3,45.2-2c5.1,0.2,9.4,2.6,14.4,3.5l0.2,0.4c-1.7,0.7-3,0.5-4.8,0.2
		c-18.2-5.3-36.9,5.1-55.5,2c-1.6-0.3-4-0.8-5-2.2c-0.6-0.9-0.7-1.8-0.5-2.8c0.8-3,5.8-5,8.4-6.4c-2.9,0.2-7.3,1.8-10,1.3
		c-1.4-0.3-2.8-1-3.6-2.2c-0.2-0.4,0-0.9,0.1-1.3C2.7,193.4,5.9,193.3,8.9,192.9z"/>
	<path d="M106,162.4c2.4,2.2,4.6,4.4,6.9,6.7c-3,6.4-4.8,13.4-7.9,19.8c-5,10.4-11.5,9-20.9,12.5c-4.4,1.7-8.5,4.2-12.5,6.6
		c1.7-3.2,4.2-5.6,6.7-8.1c4.7-4.9,9.2-10.6,15-14.2c0.2-1.2,0-1.3-0.6-2.2c-2.7-0.4-8.8,7.2-11.7,8.9l-0.2,0.1
		C87.9,182.4,97.8,171.6,106,162.4z"/>
	<path d="M265.6,0c1.5,0,2.4,0.1,3.7,0.9c0.6,1.1,0.9,1.6,0.8,2.9c-0.3,5-117.6,147.4-131.4,159.6c-6.8,6-16.3,3.9-24.6,3.5
		c-2.3-2-4.5-4.1-6.7-6.2c37.3-45.2,78.8-85.6,121.2-125.9l24-23C256.8,7.7,260.9,3.4,265.6,0z"/>
</g>
</svg>
