<?xml version="1.0" encoding="utf-8" ?>
<svg xmlns="http://www.w3.org/2000/svg" xmlns:xlink="http://www.w3.org/1999/xlink" width="994" height="375">
	<path fill="#D45686" d="M0 0L993.151 0C993.772 0.967065 993.913 1.7801 993.953 2.91132C994.314 13.0526 994.001 23.3209 994.002 33.4741L994.007 92.2602L994.004 270.579L994.004 347.132C994.004 352.165 994.752 369.555 993.817 373.567C993.696 374.086 993.445 374.56 993.151 375L0 375L0 0Z"/>
	<path fill="#F5EBF0" d="M527.723 134.136C536.754 132.868 532.901 138.71 539.311 140.553C550.578 143.792 548.157 136.308 552.947 134.128C553.874 133.706 555.519 133.623 556.464 133.984C557.302 134.305 557.294 134.542 557.651 135.315C557.301 137.022 557.031 138.186 555.814 139.474C555.957 140.45 555.724 141.065 555.239 141.898C553.661 144.606 550.494 146.251 547.541 147.044C543.412 148.154 538.644 147.954 534.893 145.767C530.28 143.078 528.966 139.032 527.723 134.136Z"/>
	<path fill="#E8AEC7" d="M45.4286 268.445C45.6834 268.403 45.922 268.367 46.18 268.35C48.9713 268.164 54.733 268.037 56.9125 270.122C57.6885 270.864 57.5751 271.294 57.5851 272.271C56.096 275.74 51.5007 276.714 48.6965 278.868C47.8414 279.525 47.8541 279.605 47.7233 280.674C53.242 284.457 83.9555 278.333 92.9185 278.656C98.0135 278.84 102.338 281.221 107.311 282.135L107.55 282.504C105.803 283.189 104.541 283.031 102.749 282.751C84.5153 277.498 65.8435 287.887 47.2399 284.743C45.6659 284.477 43.1959 283.96 42.2656 282.552C41.6735 281.656 41.5191 280.773 41.7977 279.725C42.5935 276.73 47.5953 274.68 50.1741 273.336C47.2714 273.559 42.8886 275.107 40.1618 274.597C38.7587 274.335 37.369 273.615 36.5933 272.4C36.3565 272.028 36.6318 271.489 36.7375 271.071C39.1904 269.026 42.3859 268.848 45.4286 268.445Z"/>
	<path fill="#E8AEC7" d="M142.462 237.999C144.824 240.15 147.076 242.441 149.361 244.674C146.32 251.035 144.551 258.042 141.503 264.43C136.538 274.834 130.005 273.385 120.622 276.895C116.187 278.554 112.171 281.104 108.128 283.529C109.812 280.298 112.355 277.951 114.873 275.382C119.523 270.468 124.116 264.788 129.857 261.17C130.037 259.985 129.891 259.898 129.261 258.947C126.556 258.534 120.411 266.178 117.564 267.849L117.372 267.959C124.36 258.023 134.305 247.15 142.462 237.999Z"/>
	<path fill="#E8AEC7" d="M874.334 154.996C879.807 154.086 886.169 154.657 891.752 154.666L924.955 154.75C925.125 155.037 925.247 155.269 925.354 155.585C926.039 157.602 925.648 159.814 924.714 161.664C917.748 161.364 910.662 161.62 903.683 161.607C903.956 162.095 904.185 162.594 904.324 163.138C905.104 166.187 905.154 184.747 903.729 187.015C903.769 187.096 903.808 187.177 903.85 187.257C904.035 187.609 904.216 187.955 904.34 188.334C905.21 191.011 904.999 205.661 903.865 207.748L895.163 207.762C895.345 207.492 895.514 207.209 895.63 206.904C896.612 204.324 896.255 163.952 895.232 161.583L873.875 161.652C873.925 161.571 873.978 161.491 874.025 161.409C875.052 159.604 874.938 156.912 874.334 154.996Z"/>
	<path fill="#E8AEC7" d="M836.502 153.541C839.576 153.315 842.72 153.335 845.747 153.963C852.064 155.274 857.647 158.823 861.188 164.253C865.874 171.439 866.823 180.966 865.022 189.225C863.609 195.704 860.056 201.597 854.382 205.184C844.073 211.703 834.165 208.35 823.291 205.865C824.338 203.335 824.12 200.331 823.412 197.748C830.198 200.311 837.335 203.322 844.589 200.735C845.34 200.599 846.05 200.401 846.753 200.097C850.463 198.493 853.545 195.051 855.034 191.313C855.938 189.043 856.89 185.602 855.899 183.284L828.933 183.274C829.128 182.984 829.3 182.687 829.429 182.362C830.226 180.358 829.851 178.184 829.003 176.277C837.882 176.045 846.799 176.165 855.683 176.131C855.698 176.041 855.71 175.95 855.728 175.861C855.915 174.891 855.91 174.185 855.624 173.22C854.362 168.968 851.572 164.542 847.534 162.461C839.862 158.506 830.814 162.248 823.287 164.531C823.352 164.405 823.417 164.278 823.472 164.148C824.454 161.825 824.114 158.788 823.16 156.53C827.59 156.029 831.976 154.154 836.502 153.541Z"/>
	<path fill="#E8AEC7" d="M703.749 154.996C708.458 154.029 714.39 154.632 719.218 154.638L749.512 154.699C749.799 155.169 750.039 155.668 750.136 156.215C751.12 161.741 750.311 168.849 750.318 174.506C750.331 184.715 750.969 195.376 750.212 205.542C750.148 206.401 749.914 207.058 749.447 207.778L740.969 207.921C741.12 207.597 741.246 207.266 741.325 206.916C742.153 203.242 742.048 173.212 740.672 171.005C740.935 170.632 741.154 170.232 741.276 169.79C741.893 167.547 741.944 163.604 740.733 161.578Q726.552 161.663 712.37 161.551C712.626 161.93 712.845 162.338 712.931 162.791C713.887 167.814 713.125 174.443 713.13 179.608C713.137 188.046 713.797 197.122 712.979 205.498C712.896 206.353 712.599 207.085 712.157 207.818L703.545 207.76C703.702 207.523 703.688 207.556 703.841 207.264C704.766 205.508 704.839 158.166 703.749 154.996Z"/>
	<path fill="#F5EBF0" d="M432.993 154.649L441.806 154.685C443.429 157.016 442.757 201.833 442.494 207.28C441.313 207.975 439.5 207.76 438.151 207.764C436.842 207.825 435.713 207.795 434.431 207.515C431.533 203.186 436.105 188.506 433.051 183.258C423.63 183.504 414.146 183.288 404.718 183.297C404.982 183.693 405.161 184.089 405.281 184.552C406.066 187.596 406.046 205.663 404.86 207.768L396.039 207.81C396.208 207.542 396.341 207.316 396.434 207.011C397.273 204.27 397.129 157.008 396.186 154.987C399.002 154.456 402.036 154.665 404.897 154.683C405.051 154.998 405.195 155.312 405.308 155.644C406.215 158.326 406.058 173.466 404.734 176.168L433.117 176.155C433.357 175.771 433.57 175.369 433.689 174.93C434.431 172.196 434.334 156.864 432.993 154.649Z"/>
	<path fill="#F5EBF0" d="M553.587 154.665L564.672 154.676C564.896 155.034 565.103 155.405 565.245 155.805C566.308 158.8 566.101 204.329 564.861 206.908L564.634 207.399C562.668 208.359 558.41 207.824 556.146 207.822C556.318 207.545 556.486 207.249 556.596 206.94C557.6 204.098 557.086 173.292 556.765 168.496C556.692 167.4 556.415 166.374 555.972 165.37C555.97 165.609 555.948 165.853 555.912 166.09C555.526 168.662 532.831 206.03 530.561 207.788L519.219 207.766C519.389 207.512 519.541 207.262 519.664 206.982C520.653 204.745 520.632 157.768 519.542 154.995C522.231 154.513 525.102 154.691 527.832 154.702C528.118 155.157 528.351 155.62 528.501 156.139C529.298 158.911 529.145 189.575 528.703 194.272C528.598 195.379 528.18 196.406 527.671 197.386C527.972 197.156 528.255 196.911 528.545 196.666C528.85 196.408 529.153 196.156 529.424 195.86C531.781 193.278 553.666 156.318 553.587 154.665Z"/>
	<path fill="#F5EBF0" d="M479.132 153.541C483.642 153.038 488.298 153.472 492.499 155.247C497.962 157.554 502.051 162.058 504.236 167.533C505.842 171.555 507.201 179.24 505.474 183.321C491.977 182.982 478.401 183.289 464.896 183.29C466.906 185.707 467.598 190.498 469.143 193.506C470.888 196.902 473.356 199.361 477.081 200.543C482.032 202.113 490.985 202.362 495.634 199.929C498.209 199.399 501.217 198.432 503.365 196.882C503.501 197.143 503.62 197.409 503.706 197.691C504.344 199.781 504.471 203.157 503.401 205.119C501.435 206.407 497.748 207.228 495.415 207.742C486.319 209.745 476.371 210.02 468.273 204.753C462.661 201.103 459.003 195.466 457.655 188.94C455.995 180.906 456.952 171.22 461.55 164.261C465.879 157.709 471.686 155.096 479.132 153.541Z"/>
	<path fill="#D45686" d="M477.848 161.302C481.48 160.779 484.942 160.675 488.416 162.005C491.6 163.224 494.722 165.538 496.075 168.745C496.989 170.912 497.578 173.98 496.689 176.214C492.77 176.701 488.692 176.496 484.745 176.5L465.285 176.518C466.504 174.544 467.141 172.151 468.05 170.022C470.087 165.247 473.171 163.159 477.848 161.302Z"/>
	<path fill="#E8AEC7" d="M785.784 153.541C792.179 153.044 798.664 154.103 803.816 158.139C809.307 162.439 812.024 169.16 812.84 175.928C813.848 184.293 812.766 193.911 807.391 200.716C803.053 206.208 797.499 208.207 790.75 208.977C785.193 209.221 779.553 208.257 774.908 205.041C769.364 201.203 766.227 194.879 765.101 188.361C763.643 179.92 764.488 169.852 769.591 162.696C773.657 156.992 779.05 154.644 785.784 153.541Z"/>
	<path fill="#D45686" d="M784.165 161.303C788.397 160.538 792.433 160.566 796.189 162.972C800.149 165.509 802.357 169.851 803.329 174.334C804.728 180.793 804.258 189.48 800.55 195.15C798.408 198.427 795.546 200.449 791.697 201.273C789.515 201.819 787.142 201.768 784.961 201.202C781.329 200.261 778.509 197.662 776.687 194.468C773.208 188.367 772.926 179.409 774.817 172.771C776.381 167.283 779.215 164.052 784.165 161.303Z"/>
	<path fill="#E8AEC7" d="M662.666 153.541C669.282 152.94 676.004 154.118 681.243 158.432C686.799 163.007 689.374 170.006 690.054 176.999C690.854 185.222 689.494 194.695 684.031 201.21C679.784 206.275 674.392 208.302 667.959 208.879C662.836 209.496 657.169 208.411 652.796 205.627C647.088 201.994 643.824 195.982 642.434 189.492C640.611 180.979 641.273 170.831 646.117 163.378C650.186 157.118 655.617 155.027 662.666 153.541Z"/>
	<path fill="#D45686" d="M664.191 160.818C668.122 160.674 671.532 161.37 674.64 163.966C678.762 167.408 680.477 172.85 680.922 178.036C681.457 184.276 680.573 191.887 676.331 196.815C673.552 200.043 670.426 201.241 666.286 201.569C663.868 201.941 660.824 200.966 658.763 199.762C654.93 197.522 652.657 193.364 651.611 189.17C649.942 182.471 650.358 173.707 654.014 167.687C656.498 163.597 659.643 161.899 664.191 160.818Z"/>
	<path fill="#F5EBF0" d="M606.036 153.541C610.747 153.026 615.72 153.878 619.744 156.466C625.334 160.064 628.54 166.294 629.879 172.652C631.764 181.6 630.984 192.035 625.837 199.817C622.864 204.312 618.52 207.644 613.179 208.71C608.026 209.738 601.255 208.752 597.128 205.342C595.027 203.605 593.44 201.502 591.139 199.966C591.463 200.615 591.74 201.269 591.913 201.976C592.514 204.422 592.596 209.13 591.272 211.274C591.312 211.355 591.351 211.437 591.393 211.517C591.622 211.952 591.832 212.375 591.96 212.853C592.744 215.774 592.782 225.532 591.258 228.023L582.417 228.026C582.685 227.582 582.912 227.124 583.046 226.62C584.085 222.712 583.286 208.396 583.288 203.45C583.295 188.231 584.058 172.565 583.186 157.392C583.126 156.351 582.892 155.548 582.336 154.662L591.273 154.654C591.411 154.876 591.53 155.095 591.639 155.333C592.718 157.682 592.155 160.433 591.279 162.735C598.224 157.764 595.144 156.112 606.036 153.541Z"/>
	<path fill="#D45686" d="M604.241 160.818C608.142 160.545 611.325 160.756 614.628 163.182C618.756 166.214 620.81 171.315 621.483 176.25C622.377 182.793 621.716 191.078 617.541 196.493C615.225 199.495 612.367 201.072 608.649 201.569C606.398 202.161 602.94 201.452 600.859 200.455C597.187 198.694 594.846 195.023 593.576 191.28C591.245 184.404 591.434 175.184 594.735 168.642C596.874 164.401 599.758 162.266 604.241 160.818Z"/>
	<path fill="#E8AEC7" d="M302.123 75.596C303.662 75.5757 304.562 75.6569 305.856 76.5226C306.5 77.5773 306.717 78.1068 306.644 79.3849C306.354 84.4078 189.028 226.765 175.246 238.944C168.438 244.96 158.973 242.892 150.665 242.396C148.37 240.419 146.181 238.296 143.957 236.239C181.216 191.007 222.761 150.634 265.126 110.311L289.088 87.326C293.293 83.343 297.422 78.9726 302.123 75.596Z"/>
</svg>
