<svg version="1.1" xmlns="http://www.w3.org/2000/svg" xmlns:xlink="http://www.w3.org/1999/xlink" x="0px" y="0px"
	 viewBox="0 0 24.9 21" style="enable-background:new 0 0 24.9 21;" xml:space="preserve">

<g>
	<path fill="currentcolor" d="M0,12.1V8.9c0-1.3,1.1-2.4,2.4-2.4c1,0,2-0.4,2.7-1.2l3.2-3.5C9.5,0.6,10,0,10.5-0.1c0.4,0,0.9,0.1,1.1,0.4
		C12,0.7,12,1.6,12,3.3v14.4c0,1.7,0,2.5-0.3,2.9c-0.3,0.3-0.7,0.5-1.1,0.4c-0.5-0.1-1.1-0.7-2.2-1.9l-3.2-3.5
		c-0.7-0.7-1.6-1.2-2.7-1.2C1.1,14.5,0,13.4,0,12.1z"/>
	<path fill="currentcolor" d="M16,5.1c0.4-0.4,1-0.4,1.4,0c0.7,0.7,1.3,1.6,1.7,2.5c0.4,0.9,0.6,1.9,0.6,2.9s-0.2,2-0.6,2.9s-1,1.8-1.7,2.5
		c-0.4,0.4-1,0.4-1.4,0s-0.4-1,0-1.4c0.5-0.5,0.9-1.2,1.2-1.8c0.3-0.7,0.4-1.4,0.4-2.2c0-0.7-0.1-1.5-0.4-2.2S16.5,7,16,6.5
		C15.6,6.1,15.6,5.5,16,5.1z"/>
</g>
</svg>
