<svg version="1.1" xmlns="http://www.w3.org/2000/svg" xmlns:xlink="http://www.w3.org/1999/xlink" x="0px" y="0px"
     viewBox="0 0 24.9 21" style="enable-background:new 0 0 24.9 21;" xml:space="preserve">

<g>
	<path fill="currentcolor" d="M0,12.2V9c0-1.3,1.1-2.4,2.4-2.4c1,0,2-0.4,2.7-1.2l3.2-3.5C9.5,0.7,10,0,10.5,0c0.4,0,0.9,0.1,1.1,0.4
		c0.3,0.4,0.3,1.2,0.3,2.9v14.4c0,1.7,0,2.5-0.3,2.9c-0.3,0.3-0.7,0.5-1.1,0.4c-0.5-0.1-1.1-0.7-2.2-1.9l-3.2-3.5
		c-0.7-0.7-1.6-1.2-2.7-1.2C1.1,14.6,0,13.5,0,12.2z"/>
    <path fill="currentcolor" d="M19.7,1.3c0.4-0.4,1-0.4,1.4,0c1.2,1.2,2.2,2.6,2.8,4.2c0.6,1.6,1,3.3,1,5s-0.3,3.4-1,5s-1.6,3-2.8,4.2
		c-0.4,0.4-1,0.4-1.4,0s-0.4-1,0-1.4c1-1,1.8-2.2,2.4-3.6c0.5-1.3,0.8-2.8,0.8-4.2s-0.3-2.9-0.8-4.2c-0.6-1.3-1.4-2.5-2.4-3.6
		C19.3,2.4,19.3,1.7,19.7,1.3z"/>
    <path fill="currentcolor" d="M16,5.2c0.4-0.4,1-0.4,1.4,0c0.7,0.7,1.3,1.6,1.7,2.5c0.4,0.9,0.6,1.9,0.6,2.9s-0.2,2-0.6,2.9s-1,1.8-1.7,2.5
		c-0.4,0.4-1,0.4-1.4,0s-0.4-1,0-1.4c0.5-0.5,0.9-1.2,1.2-1.8c0.3-0.7,0.4-1.4,0.4-2.2c0-0.7-0.1-1.5-0.4-2.2S16.5,7.1,16,6.6
		C15.6,6.2,15.6,5.6,16,5.2z"/>
</g>
</svg>
